# This file uses centimeters as units for non-parametric coordinates.

mtllib gatehouse.mtl
g default
v -1.296696 -0.208333 -2.073938
v -1.296696 -0.208333 -3.005417
v -1.296696 4.030982 -2.073938
v -1.296696 4.030982 -3.005417
v -2.472960 4.030982 -2.073938
v -2.472960 4.030982 -3.005417
v -2.472960 -0.208333 -2.073938
v -2.472960 -0.208333 -3.005417
v -1.296696 5.323727 -2.507091
v -1.296696 5.323727 -2.572263
v -2.472960 5.323727 -2.572263
v -2.472960 5.323727 -2.507091
v -1.265767 5.357718 -2.505377
v -1.265767 5.357718 -2.573976
v -2.503889 5.357718 -2.573976
v -2.503889 5.357718 -2.505377
v -1.265767 3.996991 -3.029909
v -2.503889 3.996991 -3.029909
v -1.265767 3.996991 -2.049444
v -2.503889 3.996991 -2.049444
v -1.264544 5.407706 -2.502858
v -1.264544 5.407706 -2.576497
v -2.505111 5.407706 -2.576497
v -2.505111 5.407706 -2.502858
v -1.264544 4.005132 -3.065928
v -2.505111 4.005132 -3.065928
v -1.264544 4.005132 -2.013426
v -2.505111 4.005132 -2.013426
v -1.296696 -0.208333 2.973641
v -1.296696 -0.208333 2.042162
v -1.296696 4.030982 2.973641
v -1.296696 4.030982 2.042162
v -2.472960 4.030982 2.973641
v -2.472960 4.030982 2.042162
v -2.472960 -0.208333 2.973641
v -2.472960 -0.208333 2.042162
v -1.296696 5.323727 2.540488
v -1.296696 5.323727 2.475316
v -2.472960 5.323727 2.475316
v -2.472960 5.323727 2.540488
v -1.265767 5.357718 2.542201
v -1.265767 5.357718 2.473603
v -2.503889 5.357718 2.473603
v -2.503889 5.357718 2.542201
v -1.265767 3.996991 2.017669
v -2.503889 3.996991 2.017669
v -1.265767 3.996991 2.998134
v -2.503889 3.996991 2.998134
v -1.264544 5.407706 2.544721
v -1.264544 5.407706 2.471081
v -2.505111 5.407706 2.471081
v -2.505111 5.407706 2.544721
v -1.264544 4.005132 1.981651
v -2.505111 4.005132 1.981651
v -1.264544 4.005132 3.034153
v -2.505111 4.005132 3.034153
v -1.357246 2.453819 -0.491191
v -1.357246 2.239680 -0.934300
v -1.357246 1.906149 -1.285954
v -1.357246 1.485876 -1.511729
v -1.357246 1.067030 -1.589526
v -1.357246 1.067030 1.589525
v -1.357246 1.485876 1.511728
v -1.357246 1.906149 1.285953
v -1.357246 2.239679 0.934299
v -1.357246 2.453819 0.491190
v -1.357246 2.527606 0.000000
v -2.402754 2.453819 -0.491191
v -2.402754 2.239680 -0.934300
v -2.402754 1.906149 -1.285954
v -2.402754 1.485876 -1.511729
v -2.402754 1.067030 -1.589526
v -2.402754 1.067030 1.589525
v -2.402754 1.485876 1.511728
v -2.402754 1.906149 1.285953
v -2.402754 2.239679 0.934299
v -2.402754 2.453819 0.491190
v -2.402754 2.527606 0.000000
v -2.402754 2.702313 -1.288687
v -2.402754 2.259569 -1.798827
v -1.357246 2.702313 -1.288687
v -1.357246 2.259569 -1.798827
v -1.357246 1.709616 -2.208452
v -2.402754 1.709616 -2.208452
v -1.357246 1.067030 -2.208452
v -2.402754 1.067030 -2.208452
v -1.357246 1.067030 2.215667
v -1.357246 1.709616 2.111236
v -2.402754 1.709616 2.111236
v -2.402754 1.067030 2.215667
v -2.402754 2.259569 1.798827
v -1.357246 2.259569 1.798827
v -1.357246 2.702312 1.288686
v -2.402754 2.702312 1.288686
v -2.402754 3.025664 0.687090
v -1.357246 3.025664 0.687090
v -1.357246 3.099452 0.000000
v -2.402754 3.099452 0.000000
v -2.402754 3.025666 -0.687090
v -1.357246 3.025666 -0.687090
v -1.357246 -0.202970 -1.589526
v -2.402754 -0.202970 -1.589526
v -2.402754 -0.202970 -2.208452
v -1.357246 -0.202970 -2.208452
v -1.357246 -0.202970 1.589525
v -2.402754 -0.202970 1.589525
v -1.357246 -0.202970 2.215667
v -2.402754 -0.202970 2.215667
v -2.402754 3.232056 -1.798827
v -1.357246 3.232056 -1.798827
v -1.357246 3.232056 -2.087544
v -2.402754 3.232056 -2.087544
v -2.402754 3.232056 1.798827
v -1.357246 3.232056 1.798827
v -1.357246 3.232056 1.288686
v -2.402754 3.232056 1.288686
v -2.402754 3.232056 0.687090
v -1.357246 3.232056 0.687090
v -1.357246 3.232056 0.000000
v -2.402754 3.232056 0.000000
v -2.402754 3.232056 -0.687090
v -1.357246 3.232056 -0.687090
v -1.357246 3.232056 -1.288687
v -2.402754 3.232056 -1.288687
v -2.402754 3.232056 2.050328
v -1.357246 3.232056 2.050328
v -1.950036 3.802056 -1.798827
v -1.809964 3.802056 -1.798827
v -1.809964 3.802055 -2.087548
v -1.950036 3.802055 -2.087548
v -1.950036 3.802056 1.798827
v -1.809964 3.802056 1.798827
v -1.809964 3.802056 1.288686
v -1.950036 3.802056 1.288686
v -1.950036 3.802056 0.687090
v -1.809964 3.802056 0.687090
v -1.809964 3.802056 0.000000
v -1.950036 3.802056 0.000000
v -1.950036 3.802056 -0.687090
v -1.809964 3.802056 -0.687090
v -1.809964 3.802056 -1.288687
v -1.950036 3.802056 -1.288687
v -1.950036 3.802055 2.050332
v -1.809964 3.802055 2.050332
v -1.205166 3.232056 -1.798827
v -1.205166 3.232056 -2.087544
v -1.789589 3.802055 -2.087548
v -1.789589 3.802056 -1.798827
v -2.554834 3.232056 -2.087544
v -1.970411 3.802055 -2.087548
v -2.554834 3.232056 -1.798827
v -1.970411 3.802056 -1.798827
v -1.205166 3.232056 1.798827
v -1.205166 3.232056 1.288686
v -1.789589 3.802056 1.288686
v -1.789589 3.802056 1.798827
v -2.554834 3.232056 1.798827
v -2.554834 3.232056 1.288686
v -1.970411 3.802056 1.798827
v -1.970411 3.802056 1.288686
v -1.205166 3.232056 0.687090
v -1.205166 3.232056 0.000000
v -1.789589 3.802056 0.000000
v -1.789589 3.802056 0.687090
v -2.554834 3.232056 0.687090
v -2.554834 3.232056 0.000000
v -1.970411 3.802056 0.687090
v -1.970411 3.802056 0.000000
v -1.205166 3.232056 -0.687090
v -1.205166 3.232056 -1.288687
v -1.789589 3.802056 -1.288687
v -1.789589 3.802056 -0.687090
v -2.554834 3.232056 -0.687090
v -2.554834 3.232056 -1.288687
v -1.970411 3.802056 -0.687090
v -1.970411 3.802056 -1.288687
v -2.554834 3.232056 2.050328
v -1.970411 3.802055 2.050332
v -1.205166 3.232056 2.050328
v -1.789589 3.802055 2.050332
vt 0.006601 0.001992
vt 0.081343 0.001992
vt 0.081343 0.342153
vt 0.006601 0.342153
vt 0.046587 0.445883
vt 0.041357 0.445883
vt 0.046724 0.448610
vt 0.041220 0.448610
vt 0.046926 0.452621
vt 0.041017 0.452621
vt 0.083308 0.339426
vt 0.086198 0.340079
vt 0.004636 0.339426
vt 0.001746 0.340079
vt 0.172031 0.342153
vt 0.097290 0.342153
vt 0.097290 0.001992
vt 0.172031 0.001992
vt 0.137275 0.445883
vt 0.132046 0.445883
vt 0.137413 0.448610
vt 0.131909 0.448610
vt 0.137615 0.452621
vt 0.131706 0.452621
vt 0.173997 0.339426
vt 0.176887 0.340079
vt 0.095325 0.339426
vt 0.092434 0.340079
vt 0.187808 0.001992
vt 0.262550 0.001992
vt 0.262550 0.342153
vt 0.187808 0.342153
vt 0.227793 0.445883
vt 0.222564 0.445883
vt 0.227931 0.448610
vt 0.222427 0.448610
vt 0.228133 0.452621
vt 0.222224 0.452621
vt 0.264515 0.339426
vt 0.267405 0.340079
vt 0.185843 0.339426
vt 0.182952 0.340079
vt 0.353067 0.342153
vt 0.278326 0.342153
vt 0.278326 0.001992
vt 0.353067 0.001992
vt 0.318311 0.445883
vt 0.313082 0.445883
vt 0.318449 0.448610
vt 0.312945 0.448610
vt 0.318651 0.452621
vt 0.312742 0.452621
vt 0.355033 0.339426
vt 0.357923 0.340079
vt 0.276361 0.339426
vt 0.273470 0.340079
vt 0.533224 0.282961
vt 0.559986 0.254744
vt 0.597108 0.283180
vt 0.561582 0.324114
vt 0.577169 0.219189
vt 0.623053 0.234908
vt 0.639614 0.283180
vt 0.639614 0.324114
vt 0.499501 0.301077
vt 0.517454 0.356982
vt 0.583089 0.179776
vt 0.628974 0.179776
vt 0.639614 0.234908
vt 0.639614 0.347280
vt 0.465893 0.307319
vt 0.465893 0.356982
vt 0.577169 0.140363
vt 0.623053 0.124645
vt 0.639614 0.179776
vt 0.363989 0.356982
vt 0.363989 0.307319
vt 0.559986 0.104809
vt 0.597107 0.076373
vt 0.639614 0.124645
vt 0.533224 0.076592
vt 0.561582 0.035439
vt 0.639614 0.076373
vt 0.499501 0.058476
vt 0.517454 0.010372
vt 0.639614 0.035439
vt 0.465893 0.052233
vt 0.465893 0.001992
vt 0.639614 0.015259
vt 0.363989 0.052233
vt 0.363989 0.001992
vt 0.794937 0.462717
vt 0.768174 0.434501
vt 0.796533 0.393348
vt 0.832058 0.434281
vt 0.734452 0.416385
vt 0.752405 0.360480
vt 0.874565 0.393348
vt 0.874565 0.434281
vt 0.812119 0.498272
vt 0.858004 0.482553
vt 0.700844 0.410142
vt 0.700844 0.360480
vt 0.874565 0.370181
vt 0.874565 0.482553
vt 0.818040 0.537685
vt 0.863925 0.537685
vt 0.598939 0.410142
vt 0.598939 0.360480
vt 0.874565 0.537685
vt 0.812119 0.577098
vt 0.858004 0.592817
vt 0.874565 0.592817
vt 0.794937 0.612653
vt 0.832058 0.641089
vt 0.874565 0.641089
vt 0.768174 0.640870
vt 0.796533 0.682023
vt 0.874565 0.682023
vt 0.734452 0.658986
vt 0.752405 0.707090
vt 0.874565 0.702203
vt 0.700844 0.665228
vt 0.700844 0.715470
vt 0.598939 0.715470
vt 0.598939 0.665228
vt 0.779005 0.718967
vt 0.784914 0.718967
vt 0.784914 0.818510
vt 0.779005 0.818510
vt 0.874565 0.916391
vt 0.799823 0.916391
vt 0.799823 0.822008
vt 0.874565 0.822008
vt 0.793850 0.719066
vt 0.793850 0.818412
vt 0.790960 0.818510
vt 0.790960 0.718967
vt 0.795816 0.721547
vt 0.795816 0.815930
vt 0.803173 0.818412
vt 0.803173 0.719066
vt 0.806063 0.718967
vt 0.806063 0.818510
vt 0.801208 0.815930
vt 0.801208 0.721547
vt 0.811455 0.718967
vt 0.817364 0.718967
vt 0.817364 0.818510
vt 0.811455 0.818510
vt 0.794447 0.926033
vt 0.719705 0.926033
vt 0.719705 0.831650
vt 0.794447 0.831650
vt 0.826300 0.719066
vt 0.826300 0.818412
vt 0.823410 0.818510
vt 0.823410 0.718967
vt 0.828266 0.721547
vt 0.828266 0.815930
vt 0.835623 0.818412
vt 0.835623 0.719066
vt 0.838513 0.718967
vt 0.838513 0.818510
vt 0.833658 0.815930
vt 0.833658 0.721547
vt 0.134757 0.764974
vt 0.145996 0.764974
vt 0.145996 0.788141
vt 0.134757 0.788141
vt 0.134757 0.724041
vt 0.145996 0.724041
vt 0.147631 0.764974
vt 0.147631 0.788141
vt 0.133122 0.788141
vt 0.133122 0.764974
vt 0.133122 0.724041
vt 0.134757 0.675769
vt 0.145996 0.675769
vt 0.147631 0.724041
vt 0.194525 0.764974
vt 0.194525 0.788141
vt 0.086228 0.788141
vt 0.086228 0.764974
vt 0.086228 0.724041
vt 0.133122 0.675769
vt 0.134757 0.620637
vt 0.145996 0.620637
vt 0.147631 0.675769
vt 0.194525 0.724041
vt 0.086228 0.675769
vt 0.133122 0.620637
vt 0.134757 0.565505
vt 0.145996 0.565505
vt 0.147631 0.620637
vt 0.194525 0.675769
vt 0.086228 0.620637
vt 0.133122 0.565505
vt 0.134757 0.517233
vt 0.145996 0.517233
vt 0.147631 0.565505
vt 0.194525 0.620637
vt 0.086228 0.565505
vt 0.133122 0.517233
vt 0.134757 0.476300
vt 0.145996 0.476300
vt 0.147631 0.517233
vt 0.194525 0.565505
vt 0.086228 0.517233
vt 0.133122 0.476300
vt 0.134757 0.456119
vt 0.145996 0.456119
vt 0.147631 0.476300
vt 0.194525 0.517233
vt 0.086228 0.476300
vt 0.133122 0.456119
vt 0.147631 0.456119
vt 0.194525 0.476300
vt 0.086228 0.456119
vt 0.194525 0.456119
vt 0.714329 0.835007
vt 0.714329 0.918899
vt 0.664666 0.918899
vt 0.664666 0.835007
vt 0.609049 0.918899
vt 0.609049 0.835007
vt 0.659290 0.835007
vt 0.659290 0.918899
vt 0.085637 0.894823
vt 0.085637 0.934236
vt 0.001746 0.934236
vt 0.001746 0.894823
vt 0.085637 0.969791
vt 0.001746 0.969791
vt 0.001746 0.855411
vt 0.085637 0.855411
vt 0.085637 0.998008
vt 0.001746 0.998008
vt 0.001746 0.819856
vt 0.085637 0.819856
vt 0.001746 0.791639
vt 0.085637 0.791639
vt 0.068649 0.479286
vt 0.068649 0.456119
vt 0.080852 0.456119
vt 0.080852 0.479286
vt 0.068649 0.520219
vt 0.080852 0.520219
vt 0.068649 0.568491
vt 0.080852 0.568491
vt 0.068649 0.623623
vt 0.080852 0.623623
vt 0.068649 0.678755
vt 0.080852 0.678755
vt 0.068649 0.727027
vt 0.080852 0.727027
vt 0.068649 0.767960
vt 0.080852 0.767960
vt 0.068649 0.788141
vt 0.080852 0.788141
vt 0.063272 0.456119
vt 0.063272 0.479286
vt 0.051070 0.479286
vt 0.051070 0.456119
vt 0.063272 0.520219
vt 0.051070 0.520219
vt 0.063272 0.568491
vt 0.051070 0.568491
vt 0.063272 0.623623
vt 0.051070 0.623623
vt 0.063272 0.678755
vt 0.051070 0.678755
vt 0.063272 0.727027
vt 0.051070 0.727027
vt 0.063272 0.767960
vt 0.051070 0.767960
vt 0.063272 0.788141
vt 0.051070 0.788141
vt 0.593563 0.700641
vt 0.499180 0.700641
vt 0.499180 0.360480
vt 0.593563 0.360480
vt 0.399420 0.360480
vt 0.493803 0.360480
vt 0.493803 0.700641
vt 0.399420 0.700641
vt 0.373013 0.912320
vt 0.273470 0.912320
vt 0.273470 0.799778
vt 0.373013 0.799778
vt 0.379359 0.799778
vt 0.478902 0.799778
vt 0.478902 0.912320
vt 0.379359 0.912320
vt 0.699508 0.721695
vt 0.699508 0.825424
vt 0.697026 0.828152
vt 0.697026 0.718967
vt 0.705566 0.825424
vt 0.705566 0.721695
vt 0.708048 0.718967
vt 0.708048 0.828152
vt 0.714105 0.825424
vt 0.714105 0.721695
vt 0.716587 0.718967
vt 0.716587 0.828152
vt 0.725127 0.721695
vt 0.725127 0.825424
vt 0.722645 0.828152
vt 0.722645 0.718967
vt 0.394044 0.796280
vt 0.299661 0.796280
vt 0.299661 0.456119
vt 0.394044 0.456119
vt 0.199902 0.456119
vt 0.294285 0.456119
vt 0.294285 0.796280
vt 0.199902 0.796280
vt 0.584791 0.816681
vt 0.485249 0.816681
vt 0.485249 0.704139
vt 0.584791 0.704139
vt 0.591138 0.718967
vt 0.690680 0.718967
vt 0.690680 0.831510
vt 0.591138 0.831510
vt 0.733666 0.721695
vt 0.733666 0.825424
vt 0.731184 0.828152
vt 0.731184 0.718967
vt 0.739724 0.825424
vt 0.739724 0.721695
vt 0.742205 0.718967
vt 0.742205 0.828152
vt 0.748263 0.825424
vt 0.748263 0.721695
vt 0.750745 0.718967
vt 0.750745 0.828152
vt 0.759284 0.721695
vt 0.759284 0.825424
vt 0.756803 0.828152
vt 0.756803 0.718967
vt 0.176326 0.927152
vt 0.092434 0.927152
vt 0.092434 0.893543
vt 0.176326 0.893543
vt 0.176326 0.960874
vt 0.092434 0.960874
vt 0.092434 0.791639
vt 0.176326 0.791639
vt 0.266844 0.833501
vt 0.182952 0.833501
vt 0.182952 0.799778
vt 0.266844 0.799778
vt 0.266844 0.867109
vt 0.182952 0.867109
vt 0.266844 0.969013
vt 0.182952 0.969013
vt 0.765342 0.731170
vt 0.765342 0.815062
vt 0.765342 0.827264
vt 0.765342 0.718967
vt 0.603672 0.847881
vt 0.603672 0.836642
vt 0.603672 0.835007
vt 0.603672 0.849516
vt 0.772174 0.815062
vt 0.772174 0.731170
vt 0.772174 0.718967
vt 0.772174 0.827264
vt 0.598296 0.836642
vt 0.598296 0.847881
vt 0.598296 0.849516
vt 0.598296 0.835007
vn 1.000000 0.000000 0.000000
vn 1.000000 0.000000 0.000000
vn 1.000000 0.000000 0.000000
vn 1.000000 0.000000 0.000000
vn 0.000000 1.000000 0.000000
vn 0.000000 1.000000 0.000000
vn 0.000000 1.000000 0.000000
vn 0.000000 1.000000 0.000000
vn -1.000000 0.000000 0.000000
vn -1.000000 0.000000 0.000000
vn -1.000000 0.000000 0.000000
vn -1.000000 0.000000 0.000000
vn 0.000000 -1.000000 0.000000
vn 0.000000 -1.000000 0.000000
vn 0.000000 -1.000000 0.000000
vn 0.000000 -1.000000 0.000000
vn 0.000000 0.000000 -1.000000
vn 0.000000 0.000000 -1.000000
vn 0.000000 0.000000 -1.000000
vn 0.000000 0.000000 -1.000000
vn 0.000000 0.000000 1.000000
vn 0.000000 0.000000 1.000000
vn 0.000000 0.000000 1.000000
vn 0.000000 0.000000 1.000000
vn 1.000000 0.000000 0.000000
vn 1.000000 0.000000 0.000000
vn 1.000000 0.000000 0.000000
vn 1.000000 0.000000 0.000000
vn 0.000000 0.329469 -0.944167
vn 0.000000 0.329469 -0.944167
vn 0.000000 0.329469 -0.944167
vn 0.000000 0.329469 -0.944167
vn -1.000000 0.000000 0.000000
vn -1.000000 0.000000 0.000000
vn -1.000000 0.000000 0.000000
vn -1.000000 0.000000 0.000000
vn 0.000000 0.329469 0.944167
vn 0.000000 0.329469 0.944167
vn 0.000000 0.329469 0.944167
vn 0.000000 0.329469 0.944167
vn 0.739638 -0.673005 0.000000
vn 0.739638 -0.673005 0.000000
vn 0.739638 -0.673005 0.000000
vn 0.739638 -0.673005 0.000000
vn -0.739640 -0.673003 0.000000
vn -0.739640 -0.673003 0.000000
vn -0.739640 -0.673003 0.000000
vn -0.739640 -0.673003 0.000000
vn 0.000000 -0.584593 0.811327
vn 0.000000 -0.584593 0.811327
vn 0.000000 -0.584593 0.811327
vn 0.000000 -0.584593 0.811327
vn -0.372751 -0.294809 0.879855
vn -0.372751 -0.294809 0.879855
vn -0.372751 -0.294809 0.879855
vn -0.372751 -0.294809 0.879855
vn 0.372750 -0.294809 0.879855
vn 0.372749 -0.294809 0.879856
vn 0.372750 -0.294809 0.879855
vn 0.372750 -0.294809 0.879855
vn 0.000000 -0.584593 -0.811327
vn 0.000000 -0.584593 -0.811327
vn 0.000000 -0.584593 -0.811327
vn 0.000000 -0.584593 -0.811327
vn 0.372751 -0.294809 -0.879855
vn 0.372751 -0.294809 -0.879855
vn 0.372751 -0.294809 -0.879855
vn 0.372751 -0.294809 -0.879855
vn -0.372750 -0.294808 -0.879855
vn -0.372750 -0.294808 -0.879855
vn -0.372750 -0.294808 -0.879855
vn -0.372750 -0.294808 -0.879855
vn 0.999701 -0.024455 0.000000
vn 0.999701 -0.024455 0.000000
vn 0.999701 -0.024455 0.000000
vn 0.999701 -0.024455 0.000000
vn -0.999701 -0.024455 0.000000
vn -0.999701 -0.024455 0.000000
vn -0.999701 -0.024455 0.000000
vn -0.999701 -0.024455 0.000000
vn 0.000000 -0.975391 -0.220482
vn 0.000000 -0.975391 -0.220482
vn 0.000000 -0.975391 -0.220482
vn 0.000000 -0.975391 -0.220482
vn -0.999023 -0.014306 0.041817
vn -0.999023 -0.014306 0.041817
vn -0.999023 -0.014306 0.041817
vn -0.999023 -0.014306 0.041817
vn 0.999023 -0.014306 0.041817
vn 0.999023 -0.014306 0.041817
vn 0.999023 -0.014306 0.041817
vn 0.999023 -0.014306 0.041817
vn 0.000000 -0.975391 0.220482
vn 0.000000 -0.975391 0.220482
vn 0.000000 -0.975391 0.220482
vn 0.000000 -0.975391 0.220482
vn 0.999023 -0.014306 -0.041817
vn 0.999023 -0.014306 -0.041817
vn 0.999023 -0.014306 -0.041817
vn 0.999023 -0.014306 -0.041817
vn -0.999023 -0.014308 -0.041817
vn -0.999023 -0.014308 -0.041817
vn -0.999023 -0.014308 -0.041817
vn -0.999023 -0.014308 -0.041817
vn 1.000000 0.000000 0.000000
vn 1.000000 0.000000 0.000000
vn 1.000000 0.000000 0.000000
vn 1.000000 0.000000 0.000000
vn 0.000000 1.000000 0.000000
vn 0.000000 1.000000 0.000000
vn 0.000000 1.000000 0.000000
vn 0.000000 1.000000 0.000000
vn -1.000000 0.000000 0.000000
vn -1.000000 0.000000 0.000000
vn -1.000000 0.000000 0.000000
vn -1.000000 0.000000 0.000000
vn 0.000000 -1.000000 0.000000
vn 0.000000 -1.000000 0.000000
vn 0.000000 -1.000000 0.000000
vn 0.000000 -1.000000 0.000000
vn 0.000000 0.000000 -1.000000
vn 0.000000 0.000000 -1.000000
vn 0.000000 0.000000 -1.000000
vn 0.000000 0.000000 -1.000000
vn 0.000000 0.000000 1.000000
vn 0.000000 0.000000 1.000000
vn 0.000000 0.000000 1.000000
vn 0.000000 0.000000 1.000000
vn 1.000000 0.000000 0.000000
vn 1.000000 0.000000 0.000000
vn 1.000000 0.000000 0.000000
vn 1.000000 0.000000 0.000000
vn 0.000000 0.329469 -0.944167
vn 0.000000 0.329469 -0.944167
vn 0.000000 0.329469 -0.944167
vn 0.000000 0.329469 -0.944167
vn -1.000000 0.000000 0.000000
vn -1.000000 0.000000 0.000000
vn -1.000000 0.000000 0.000000
vn -1.000000 0.000000 0.000000
vn 0.000000 0.329469 0.944167
vn 0.000000 0.329469 0.944167
vn 0.000000 0.329469 0.944167
vn 0.000000 0.329469 0.944167
vn 0.739638 -0.673005 0.000000
vn 0.739638 -0.673005 0.000000
vn 0.739638 -0.673005 0.000000
vn 0.739638 -0.673005 0.000000
vn -0.739640 -0.673003 0.000000
vn -0.739640 -0.673003 0.000000
vn -0.739640 -0.673003 0.000000
vn -0.739640 -0.673003 0.000000
vn 0.000000 -0.584593 0.811327
vn 0.000000 -0.584593 0.811327
vn 0.000000 -0.584593 0.811327
vn 0.000000 -0.584593 0.811327
vn -0.372751 -0.294809 0.879855
vn -0.372751 -0.294809 0.879855
vn -0.372751 -0.294809 0.879855
vn -0.372751 -0.294809 0.879855
vn 0.372750 -0.294809 0.879855
vn 0.372749 -0.294809 0.879856
vn 0.372750 -0.294809 0.879855
vn 0.372750 -0.294809 0.879855
vn 0.000000 -0.584593 -0.811327
vn 0.000000 -0.584593 -0.811327
vn 0.000000 -0.584593 -0.811327
vn 0.000000 -0.584593 -0.811327
vn 0.372751 -0.294809 -0.879855
vn 0.372751 -0.294809 -0.879855
vn 0.372751 -0.294809 -0.879855
vn 0.372751 -0.294809 -0.879855
vn -0.372750 -0.294808 -0.879855
vn -0.372750 -0.294808 -0.879855
vn -0.372750 -0.294808 -0.879855
vn -0.372750 -0.294808 -0.879855
vn 0.999701 -0.024455 0.000000
vn 0.999701 -0.024455 0.000000
vn 0.999701 -0.024455 0.000000
vn 0.999701 -0.024455 0.000000
vn -0.999701 -0.024455 0.000000
vn -0.999701 -0.024455 0.000000
vn -0.999701 -0.024455 0.000000
vn -0.999701 -0.024455 0.000000
vn 0.000000 -0.975391 -0.220482
vn 0.000000 -0.975391 -0.220482
vn 0.000000 -0.975391 -0.220482
vn 0.000000 -0.975391 -0.220482
vn -0.999023 -0.014306 0.041817
vn -0.999023 -0.014306 0.041817
vn -0.999023 -0.014306 0.041817
vn -0.999023 -0.014306 0.041817
vn 0.999023 -0.014306 0.041817
vn 0.999023 -0.014306 0.041817
vn 0.999023 -0.014306 0.041817
vn 0.999023 -0.014306 0.041817
vn 0.000000 -0.975391 0.220482
vn 0.000000 -0.975391 0.220482
vn 0.000000 -0.975391 0.220482
vn 0.000000 -0.975391 0.220482
vn 0.999023 -0.014306 -0.041817
vn 0.999023 -0.014306 -0.041817
vn 0.999023 -0.014306 -0.041817
vn 0.999023 -0.014306 -0.041817
vn -0.999023 -0.014308 -0.041817
vn -0.999023 -0.014308 -0.041817
vn -0.999023 -0.014308 -0.041817
vn -0.999023 -0.014308 -0.041817
vn 0.000000 1.000000 -0.000002
vn 0.000000 1.000000 -0.000002
vn 0.000000 1.000000 -0.000004
vn 0.000000 1.000000 -0.000004
vn 0.000000 1.000000 0.000002
vn 0.000000 1.000000 0.000002
vn 0.000000 1.000000 0.000000
vn 0.000000 1.000000 0.000000
vn 0.000000 1.000000 0.000000
vn 0.000000 1.000000 0.000000
vn 0.000000 1.000000 0.000000
vn 0.000000 1.000000 0.000000
vn 0.000000 1.000000 0.000000
vn 0.000000 1.000000 0.000000
vn 0.000000 1.000000 0.000000
vn 0.000000 1.000000 0.000000
vn -1.000000 -0.000000 0.000000
vn -1.000000 -0.000000 0.000000
vn -1.000000 -0.000000 0.000000
vn -1.000000 -0.000000 0.000000
vn 1.000000 0.000000 0.000000
vn 1.000000 0.000000 0.000000
vn 1.000000 0.000000 0.000000
vn 1.000000 0.000000 0.000000
vn 1.000000 -0.000000 0.000000
vn 1.000000 -0.000000 0.000000
vn -1.000000 0.000000 0.000000
vn -1.000000 0.000000 0.000000
vn 1.000000 -0.000000 0.000000
vn 1.000000 -0.000000 0.000000
vn 0.000000 -1.000000 0.000000
vn 0.000000 -1.000000 0.000000
vn 0.000000 -1.000000 0.000000
vn 0.000000 -1.000000 0.000000
vn -1.000000 0.000000 0.000000
vn -1.000000 0.000000 0.000000
vn 1.000000 0.000000 0.000000
vn 1.000000 0.000000 0.000000
vn 1.000000 0.000000 0.000000
vn 1.000000 0.000000 0.000000
vn -1.000000 -0.000000 0.000000
vn -1.000000 -0.000000 0.000000
vn -1.000000 -0.000000 0.000000
vn -1.000000 -0.000000 0.000000
vn 0.000000 -1.000000 0.000000
vn 0.000000 -1.000000 0.000000
vn 0.000000 -1.000000 0.000000
vn 0.000000 -1.000000 0.000000
vn -1.000000 -0.000000 0.000000
vn -1.000000 -0.000000 0.000000
vn 1.000000 0.000000 0.000000
vn 1.000000 0.000000 0.000000
vn 1.000000 0.000000 0.000000
vn 1.000000 0.000000 0.000000
vn -1.000000 -0.000000 0.000000
vn -1.000000 -0.000000 0.000000
vn -1.000000 -0.000000 0.000000
vn -1.000000 -0.000000 0.000000
vn 1.000000 -0.000000 0.000000
vn 1.000000 -0.000000 0.000000
vn 1.000000 -0.000000 0.000000
vn 1.000000 -0.000000 0.000000
vn -1.000000 -0.000000 0.000000
vn -1.000000 -0.000000 0.000000
vn -1.000000 -0.000000 0.000000
vn -1.000000 -0.000000 0.000000
vn 1.000000 0.000000 0.000000
vn 1.000000 0.000000 0.000000
vn 0.000000 -0.988904 -0.148554
vn 0.000000 -0.988904 -0.148554
vn 0.000000 -0.988904 -0.148554
vn 0.000000 -0.988904 -0.148554
vn 0.000000 -0.340197 0.940354
vn 0.000000 -0.340197 0.940354
vn 0.000000 -0.182617 0.983184
vn 0.000000 -0.182617 0.983184
vn 0.000000 -0.823427 -0.567423
vn 0.000000 -0.823427 -0.567423
vn 0.000000 -0.900372 -0.435120
vn 0.000000 -0.900372 -0.435120
vn 0.000000 -0.608109 -0.793854
vn 0.000000 -0.608109 -0.793854
vn 0.000000 -0.340197 -0.940354
vn 0.000000 -0.340197 -0.940354
vn 0.000000 -0.182618 -0.983184
vn 0.000000 -0.182618 -0.983184
vn 0.000000 -0.955650 0.294506
vn 0.000000 -0.955650 0.294506
vn 0.000000 -0.988904 0.148553
vn 0.000000 -0.988904 0.148553
vn 0.000000 -0.823427 0.567422
vn 0.000000 -0.823427 0.567422
vn 0.000000 -0.608109 0.793854
vn 0.000000 -0.608109 0.793854
vn 0.000000 0.000000 1.000000
vn 0.000000 0.000000 1.000000
vn 0.000000 0.000000 1.000000
vn 0.000000 0.000000 1.000000
vn -1.000000 0.000000 0.000000
vn -1.000000 0.000000 0.000000
vn -1.000000 0.000000 0.000000
vn -1.000000 0.000000 0.000000
vn 1.000000 0.000000 0.000000
vn 1.000000 0.000000 0.000000
vn 1.000000 0.000000 0.000000
vn 1.000000 0.000000 0.000000
vn 0.000000 0.000000 -1.000000
vn 0.000000 0.000000 -1.000000
vn 0.000000 0.000000 -1.000000
vn 0.000000 0.000000 -1.000000
vn 1.000000 0.000000 0.000000
vn 1.000000 0.000000 0.000000
vn 1.000000 0.000000 0.000000
vn 1.000000 0.000000 0.000000
vn -1.000000 0.000000 0.000000
vn -1.000000 0.000000 0.000000
vn -1.000000 0.000000 0.000000
vn -1.000000 0.000000 0.000000
vn 0.000000 1.000000 0.000005
vn 0.000000 1.000000 0.000005
vn 1.000000 0.000000 0.000000
vn 1.000000 0.000000 0.000000
vn 1.000000 0.000000 0.000000
vn 1.000000 0.000000 0.000000
vn -1.000000 0.000000 0.000000
vn -1.000000 0.000000 0.000000
vn -1.000000 0.000000 0.000000
vn -1.000000 0.000000 0.000000
vn 1.000000 0.000000 0.000000
vn 1.000000 0.000000 0.000000
vn 1.000000 0.000000 0.000000
vn 1.000000 0.000000 0.000000
vn -1.000000 0.000000 0.000000
vn -1.000000 0.000000 0.000000
vn -1.000000 0.000000 0.000000
vn -1.000000 0.000000 0.000000
vn 1.000000 0.000000 0.000000
vn 1.000000 0.000000 0.000000
vn 1.000000 0.000000 0.000000
vn 1.000000 0.000000 0.000000
vn -1.000000 0.000000 0.000000
vn -1.000000 0.000000 0.000000
vn -1.000000 0.000000 0.000000
vn -1.000000 0.000000 0.000000
vn 1.000000 0.000000 0.000000
vn 1.000000 0.000000 0.000000
vn 1.000000 0.000000 0.000000
vn 1.000000 0.000000 0.000000
vn -1.000000 0.000000 0.000000
vn -1.000000 0.000000 0.000000
vn -1.000000 0.000000 0.000000
vn -1.000000 0.000000 0.000000
vn -1.000000 0.000000 0.000000
vn -1.000000 0.000000 0.000000
vn -1.000000 0.000000 0.000000
vn -1.000000 0.000000 0.000000
vn 1.000000 0.000000 0.000000
vn 1.000000 0.000000 0.000000
vn 1.000000 0.000000 0.000000
vn 1.000000 0.000000 0.000000
vn -1.000000 0.000000 0.000000
vn -1.000000 0.000000 0.000000
vn -1.000000 0.000000 0.000000
vn -1.000000 0.000000 0.000000
vn 1.000000 0.000000 0.000000
vn 1.000000 0.000000 0.000000
vn 1.000000 0.000000 0.000000
vn 1.000000 0.000000 0.000000
vn -1.000000 0.000000 0.000000
vn -1.000000 0.000000 0.000000
vn -1.000000 0.000000 0.000000
vn -1.000000 0.000000 0.000000
vn 1.000000 0.000000 0.000000
vn 1.000000 0.000000 0.000000
vn 1.000000 0.000000 0.000000
vn 1.000000 0.000000 0.000000
vn -1.000000 0.000000 0.000000
vn -1.000000 0.000000 0.000000
vn -1.000000 0.000000 0.000000
vn -1.000000 0.000000 0.000000
vn 1.000000 0.000000 0.000000
vn 1.000000 0.000000 0.000000
vn 1.000000 0.000000 0.000000
vn 1.000000 0.000000 0.000000
vn 0.698217 0.715886 -0.000002
vn 0.698217 0.715886 -0.000002
vn 0.698217 0.715886 -0.000002
vn 0.698217 0.715886 -0.000002
vn -0.698217 0.715886 -0.000002
vn -0.698217 0.715886 -0.000002
vn -0.698217 0.715886 -0.000002
vn -0.698217 0.715886 -0.000002
vn 0.698218 0.715885 0.000000
vn 0.698218 0.715885 0.000000
vn 0.698218 0.715885 0.000000
vn 0.698218 0.715885 0.000000
vn -0.698218 0.715886 0.000000
vn -0.698218 0.715886 0.000000
vn -0.698218 0.715886 0.000000
vn -0.698218 0.715886 0.000000
vn 0.698218 0.715885 0.000000
vn 0.698218 0.715885 0.000000
vn 0.698218 0.715885 0.000000
vn 0.698218 0.715885 0.000000
vn -0.698218 0.715886 0.000000
vn -0.698218 0.715886 0.000000
vn -0.698218 0.715886 0.000000
vn -0.698218 0.715886 0.000000
vn 0.698218 0.715885 0.000000
vn 0.698218 0.715885 0.000000
vn 0.698218 0.715885 0.000000
vn 0.698218 0.715885 0.000000
vn -0.698218 0.715886 0.000000
vn -0.698218 0.715886 0.000000
vn -0.698218 0.715886 0.000000
vn -0.698218 0.715886 0.000000
vn -0.698218 0.715886 0.000002
vn -0.698217 0.715886 0.000002
vn -0.698218 0.715886 0.000002
vn -0.698217 0.715886 0.000002
vn 0.698218 0.715886 0.000002
vn 0.698218 0.715886 0.000002
vn 0.698218 0.715886 0.000002
vn 0.698218 0.715886 0.000002
vn -0.698218 0.715886 0.000000
vn -0.698218 0.715886 0.000000
vn -0.698218 0.715886 0.000000
vn -0.698218 0.715886 0.000000
vn 0.698218 0.715886 0.000000
vn 0.698218 0.715886 0.000000
vn 0.698218 0.715886 0.000000
vn 0.698218 0.715886 0.000000
vn -0.698218 0.715885 0.000000
vn -0.698218 0.715885 0.000000
vn -0.698218 0.715885 0.000000
vn -0.698218 0.715885 0.000000
vn 0.698218 0.715885 0.000000
vn 0.698218 0.715885 0.000000
vn 0.698218 0.715885 0.000000
vn 0.698218 0.715885 0.000000
vn -0.698218 0.715886 0.000000
vn -0.698218 0.715886 0.000000
vn -0.698218 0.715886 0.000000
vn -0.698218 0.715886 0.000000
vn 0.698218 0.715885 0.000000
vn 0.698218 0.715885 0.000000
vn 0.698218 0.715885 0.000000
vn 0.698218 0.715885 0.000000
vn 0.000000 -1.000000 0.000000
vn 0.000000 -1.000000 0.000000
vn 0.000000 -1.000000 0.000000
vn 0.000000 -1.000000 0.000000
vn 0.000000 1.000000 -0.000005
vn 0.000000 1.000000 -0.000005
vn 0.000000 1.000000 -0.000005
vn 0.000000 1.000000 -0.000005
vn 0.000000 0.000000 -0.000000
vn 0.000000 0.000000 -0.000000
vn 0.000000 0.000000 -0.000000
vn 0.000000 0.000000 -0.000000
vn 0.000000 0.000000 -1.000000
vn 0.000000 0.000000 -1.000000
vn 0.000000 0.000000 -0.000000
vn 0.000000 0.000000 -0.000000
vn 0.000000 -1.000000 0.000000
vn 0.000000 -1.000000 0.000000
vn 0.000000 -1.000000 0.000000
vn 0.000000 -1.000000 0.000000
vn 0.000000 1.000000 -0.000005
vn 0.000000 1.000000 -0.000005
vn 0.000000 1.000000 -0.000005
vn 0.000000 1.000000 -0.000005
vn 0.000000 -1.000000 0.000000
vn 0.000000 -1.000000 0.000000
vn 0.000000 -1.000000 0.000000
vn 0.000000 -1.000000 0.000000
vn 0.000000 1.000000 0.000000
vn 0.000000 1.000000 0.000000
vn 0.000000 1.000000 0.000000
vn 0.000000 1.000000 0.000000
vn 0.000000 -1.000000 0.000000
vn 0.000000 -1.000000 0.000000
vn 0.000000 -1.000000 0.000000
vn 0.000000 -1.000000 0.000000
vn 0.000000 1.000000 0.000000
vn 0.000000 1.000000 0.000000
vn 0.000000 1.000000 0.000000
vn 0.000000 1.000000 0.000000
vn 0.000000 -1.000000 0.000000
vn 0.000000 -1.000000 0.000000
vn 0.000000 -1.000000 0.000000
vn 0.000000 -1.000000 0.000000
vn 0.000000 1.000000 0.000000
vn 0.000000 1.000000 0.000000
vn 0.000000 1.000000 0.000000
vn 0.000000 1.000000 0.000000
vn 0.000000 -1.000000 0.000000
vn 0.000000 -1.000000 0.000000
vn 0.000000 -1.000000 0.000000
vn 0.000000 -1.000000 0.000000
vn 0.000000 1.000000 0.000000
vn 0.000000 1.000000 0.000000
vn 0.000000 1.000000 0.000000
vn 0.000000 1.000000 0.000000
vn 0.000000 -1.000000 0.000000
vn 0.000000 -1.000000 0.000000
vn 0.000000 -1.000000 0.000000
vn 0.000000 -1.000000 0.000000
vn 0.000000 1.000000 0.000000
vn 0.000000 1.000000 0.000000
vn 0.000000 1.000000 0.000000
vn 0.000000 1.000000 0.000000
vn 0.000000 -1.000000 0.000000
vn 0.000000 -1.000000 0.000000
vn 0.000000 -1.000000 0.000000
vn 0.000000 -1.000000 0.000000
vn 0.000000 1.000000 0.000000
vn 0.000000 1.000000 0.000000
vn 0.000000 1.000000 0.000000
vn 0.000000 1.000000 0.000000
vn 0.000000 -1.000000 0.000000
vn 0.000000 -1.000000 0.000000
vn 0.000000 -1.000000 0.000000
vn 0.000000 -1.000000 0.000000
vn 0.000000 1.000000 0.000006
vn 0.000000 1.000000 0.000006
vn 0.000000 1.000000 0.000006
vn 0.000000 1.000000 0.000006
vn 0.000000 0.000000 0.000000
vn 0.000000 0.000000 0.000000
vn 0.000000 0.000000 0.000000
vn 0.000000 0.000000 0.000000
vn 0.000000 0.000000 1.000000
vn 0.000000 0.000000 1.000000
vn 0.000000 0.000000 0.000000
vn 0.000000 0.000000 0.000000
vn 0.000000 -1.000000 0.000000
vn 0.000000 -1.000000 0.000000
vn 0.000000 -1.000000 0.000000
vn 0.000000 -1.000000 0.000000
vn -0.000000 1.000000 0.000006
vn -0.000000 1.000000 0.000006
vn -0.000000 1.000000 0.000006
vn -0.000000 1.000000 0.000006
vn 0.000000 -1.000000 0.000000
vn 0.000000 -1.000000 0.000000
vn 0.000000 -1.000000 0.000000
vn 0.000000 -1.000000 0.000000
vn 0.000000 1.000000 0.000000
vn 0.000000 1.000000 0.000000
vn 0.000000 1.000000 0.000000
vn 0.000000 1.000000 0.000000
vn 0.000000 -1.000000 0.000000
vn 0.000000 -1.000000 0.000000
vn 0.000000 -1.000000 0.000000
vn 0.000000 -1.000000 0.000000
vn 0.000000 1.000000 0.000000
vn 0.000000 1.000000 0.000000
vn 0.000000 1.000000 0.000000
vn 0.000000 1.000000 0.000000
vn 0.000000 -1.000000 0.000000
vn 0.000000 -1.000000 0.000000
vn 0.000000 -1.000000 0.000000
vn 0.000000 -1.000000 0.000000
vn 0.000000 1.000000 0.000000
vn 0.000000 1.000000 0.000000
vn 0.000000 1.000000 0.000000
vn 0.000000 1.000000 0.000000
vn 0.000000 -1.000000 0.000000
vn 0.000000 -1.000000 0.000000
vn 0.000000 -1.000000 0.000000
vn 0.000000 -1.000000 0.000000
vn 0.000000 1.000000 0.000000
vn 0.000000 1.000000 0.000000
vn 0.000000 1.000000 0.000000
vn 0.000000 1.000000 0.000000
vn 0.000000 -1.000000 0.000000
vn 0.000000 -1.000000 0.000000
vn 0.000000 -1.000000 0.000000
vn 0.000000 -1.000000 0.000000
vn 0.000000 1.000000 0.000000
vn 0.000000 1.000000 0.000000
vn 0.000000 1.000000 0.000000
vn 0.000000 1.000000 0.000000
vn 0.000000 -1.000000 0.000000
vn 0.000000 -1.000000 0.000000
vn 0.000000 -1.000000 0.000000
vn 0.000000 -1.000000 0.000000
vn 0.000000 1.000000 0.000000
vn 0.000000 1.000000 0.000000
vn 0.000000 1.000000 0.000000
vn 0.000000 1.000000 0.000000
s off
g house_6
usemtl initialShadingGroup
f 1/1/1 2/2/2 4/3/3 3/4/4
f 21/127/5 22/128/6 23/129/7 24/130/8
f 5/15/9 6/16/10 8/17/11 7/18/12
f 7/131/13 8/132/14 2/133/15 1/134/16
f 2/279/17 8/280/18 6/281/19 4/282/20
f 7/283/21 1/284/22 3/285/23 5/286/24
f 3/4/25 4/3/26 10/5/27 9/6/28
f 25/287/29 26/288/30 23/289/31 22/290/32
f 6/16/33 5/15/34 12/19/35 11/20/36
f 28/291/37 27/292/38 21/293/39 24/294/40
f 9/6/41 10/5/42 14/7/43 13/8/44
f 11/20/45 12/19/46 16/21/47 15/22/48
f 4/139/49 6/140/50 18/136/51 17/135/52
f 6/295/53 11/296/54 15/297/55 18/298/56
f 10/299/57 4/300/58 17/301/59 14/302/60
f 5/145/61 3/146/62 19/142/63 20/141/64
f 3/303/65 9/304/66 13/305/67 19/306/68
f 12/307/69 5/308/70 20/309/71 16/310/72
f 13/8/73 14/7/74 22/9/75 21/10/76
f 15/22/77 16/21/78 24/23/79 23/24/80
f 17/135/81 18/136/82 26/137/83 25/138/84
f 18/27/85 15/22/86 23/24/87 26/28/88
f 14/7/89 17/11/90 25/12/91 22/9/92
f 20/141/93 19/142/94 27/143/95 28/144/96
f 19/13/97 13/8/98 21/10/99 27/14/100
f 16/21/101 20/25/102 28/26/103 24/23/104
f 29/29/105 30/30/106 32/31/107 31/32/108
f 49/147/109 50/148/110 51/149/111 52/150/112
f 33/43/113 34/44/114 36/45/115 35/46/116
f 35/151/117 36/152/118 30/153/119 29/154/120
f 30/311/121 36/312/122 34/313/123 32/314/124
f 35/315/125 29/316/126 31/317/127 33/318/128
f 31/32/129 32/31/130 38/33/131 37/34/132
f 53/319/133 54/320/134 51/321/135 50/322/136
f 34/44/137 33/43/138 40/47/139 39/48/140
f 56/323/141 55/324/142 49/325/143 52/326/144
f 37/34/145 38/33/146 42/35/147 41/36/148
f 39/48/149 40/47/150 44/49/151 43/50/152
f 32/159/153 34/160/154 46/156/155 45/155/156
f 34/327/157 39/328/158 43/329/159 46/330/160
f 38/331/161 32/332/162 45/333/163 42/334/164
f 33/165/165 31/166/166 47/162/167 48/161/168
f 31/335/169 37/336/170 41/337/171 47/338/172
f 40/339/173 33/340/174 48/341/175 44/342/176
f 41/36/177 42/35/178 50/37/179 49/38/180
f 43/50/181 44/49/182 52/51/183 51/52/184
f 45/155/185 46/156/186 54/157/187 53/158/188
f 46/55/189 43/50/190 51/52/191 54/56/192
f 42/35/193 45/39/194 53/40/195 50/37/196
f 48/161/197 47/162/198 55/163/199 56/164/200
f 47/41/201 41/36/202 49/38/203 55/42/204
f 44/49/205 48/53/206 56/54/207 52/51/208
s 1
f 127/167/209 128/168/210 129/169/211 130/170/212
f 131/205/213 132/206/214 133/200/215 134/199/216
f 135/193/217 136/194/218 137/188/219 138/187/220
f 139/178/221 140/179/222 141/172/223 142/171/224
s 3
f 70/57/225 69/58/226 79/59/227 80/60/228
s 4
f 58/92/229 59/93/230 82/94/231 81/95/232
f 59/93/230 60/96/233 83/97/234 82/94/231
s 3
f 71/65/235 70/57/225 80/60/228 84/66/236
s 4
f 60/96/233 61/102/237 85/103/238 83/97/234
s off
f 101/221/239 102/222/240 103/223/241 104/224/242
s 3
f 72/71/243 71/65/235 84/66/236 86/72/244
s 4
f 62/123/245 63/120/246 88/121/247 87/124/248
s 3
f 74/84/249 73/87/250 90/88/251 89/85/252
s off
f 106/225/253 105/226/254 107/227/255 108/228/256
s 3
f 75/81/257 74/84/249 89/85/252 91/82/258
s 4
f 63/120/246 64/117/259 92/118/260 88/121/247
f 64/117/259 65/114/261 93/115/262 92/118/260
s 3
f 76/78/263 75/81/257 91/82/258 94/79/264
f 77/73/265 76/78/263 94/79/264 95/74/266
s 4
f 65/114/261 66/111/267 96/112/268 93/115/262
f 66/111/267 67/106/269 97/107/270 96/112/268
s 3
f 78/67/271 77/73/265 95/74/266 98/68/272
f 68/61/273 78/67/271 98/68/272 99/62/274
s 4
f 67/106/269 57/100/275 100/101/276 97/107/270
f 57/100/275 58/92/229 81/95/232 100/101/276
s 3
f 69/58/226 68/61/273 99/62/274 79/59/227
s off
f 67/229/277 66/230/278 77/231/279 78/232/280
s 7
f 60/343/281 71/344/282 72/345/283 61/346/284
s 8
f 65/233/285 76/234/286 77/231/287 66/230/288
f 64/237/289 75/238/290 76/234/286 65/233/285
f 63/351/291 74/352/292 75/353/290 64/354/289
f 63/351/291 62/355/293 73/356/294 74/352/292
s 7
f 68/235/295 57/236/296 67/229/297 78/232/298
f 68/235/295 69/239/299 58/240/300 57/236/296
f 58/240/300 69/239/299 70/241/301 59/242/302
f 59/347/302 70/348/301 71/344/282 60/343/281
s off
f 61/346/303 72/345/304 102/349/305 101/350/306
f 72/71/307 86/72/308 103/76/309 102/77/310
f 85/103/311 61/102/312 101/108/313 104/109/314
f 73/356/315 62/355/316 105/357/317 106/358/318
f 62/123/319 87/124/320 107/125/321 105/126/322
f 90/88/323 73/87/324 106/90/325 108/91/326
s 1
f 131/205/213 143/211/327 144/212/328 132/206/214
f 135/193/217 134/199/216 133/200/215 136/194/218
f 139/178/221 138/187/220 137/188/219 140/179/222
f 127/167/209 142/171/224 141/172/223 128/168/210
s off
f 82/94/329 83/97/330 111/104/331 110/98/332
f 84/66/333 80/60/334 109/64/335 112/70/336
f 92/118/337 93/115/338 115/116/339 114/119/340
f 94/79/341 91/82/342 113/86/343 116/83/344
f 96/112/345 97/107/346 119/110/347 118/113/348
f 98/68/349 95/74/350 117/80/351 120/75/352
f 100/101/353 81/95/354 123/99/355 122/105/356
f 79/59/357 99/62/358 121/69/359 124/63/360
f 91/82/361 89/85/362 125/89/363 113/86/364
f 88/121/365 92/118/366 114/119/367 126/122/368
f 95/74/369 94/79/370 116/83/371 117/80/372
f 93/115/373 96/112/374 118/113/375 115/116/376
f 99/62/377 98/68/378 120/75/379 121/69/380
f 97/107/381 100/101/382 122/105/383 119/110/384
f 80/60/385 79/59/386 124/63/387 109/64/388
f 81/95/389 82/94/390 110/98/391 123/99/392
f 145/181/393 146/182/394 147/174/395 148/173/396
f 149/183/397 151/184/398 152/176/399 150/175/400
f 153/218/401 154/214/402 155/207/403 156/213/404
f 158/209/405 157/215/406 159/210/407 160/204/408
f 161/208/409 162/202/410 163/195/411 164/201/412
f 166/197/413 165/203/414 167/198/415 168/192/416
f 169/196/417 170/190/418 171/180/419 172/189/420
f 174/185/421 173/191/422 175/186/423 176/177/424
f 157/215/425 177/219/426 178/216/427 159/210/428
f 179/220/429 153/218/430 156/213/431 180/217/432
f 165/203/433 158/209/434 160/204/435 167/198/436
f 154/214/437 161/208/438 164/201/439 155/207/440
f 173/191/441 166/197/442 168/192/443 175/186/444
f 162/202/445 169/196/446 172/189/447 163/195/448
f 151/184/449 174/185/450 176/177/451 152/176/452
f 170/190/453 145/181/454 148/173/455 171/180/456
f 110/243/457 111/244/458 146/245/459 145/246/460
f 129/169/461 128/168/462 148/173/463 147/174/464
f 111/359/465 112/360/466 149/361/467 146/362/468
f 130/363/469 129/364/470 147/365/471 150/366/472
f 112/261/473 109/262/474 151/263/475 149/264/476
f 127/167/477 130/170/478 150/175/479 152/176/480
f 114/257/481 115/255/482 154/256/483 153/258/484
f 133/200/485 132/206/486 156/213/487 155/207/488
f 116/273/489 113/275/490 157/276/491 158/274/492
f 131/205/493 134/199/494 160/204/495 159/210/496
f 118/253/497 119/251/498 162/252/499 161/254/500
f 137/188/501 136/194/502 164/201/503 163/195/504
f 120/269/505 117/271/506 165/272/507 166/270/508
f 135/193/509 138/187/510 168/192/511 167/198/512
f 122/249/513 123/247/514 170/248/515 169/250/516
f 141/172/517 140/179/518 172/189/519 171/180/520
f 124/265/521 121/267/522 173/268/523 174/266/524
f 139/178/525 142/171/526 176/177/527 175/186/528
f 113/275/529 125/277/530 177/278/531 157/276/532
f 143/211/533 131/205/534 159/210/535 178/216/536
f 125/367/537 126/368/538 179/369/539 177/370/540
f 144/371/541 143/372/542 178/373/543 180/374/544
f 126/259/545 114/257/546 153/258/547 179/260/548
f 132/206/549 144/212/550 180/217/551 156/213/552
f 117/271/553 116/273/554 158/274/555 165/272/556
f 134/199/557 135/193/558 167/198/559 160/204/560
f 115/255/561 118/253/562 161/254/563 154/256/564
f 136/194/565 133/200/566 155/207/567 164/201/568
f 121/267/569 120/269/570 166/270/571 173/268/572
f 138/187/573 139/178/574 175/186/575 168/192/576
f 119/251/577 122/249/578 169/250/579 162/252/580
f 140/179/581 137/188/582 163/195/583 172/189/584
f 109/262/585 124/265/586 174/266/587 151/263/588
f 142/171/589 127/167/590 152/176/591 176/177/592
f 123/247/593 110/243/594 145/246/595 170/248/596
f 128/168/597 141/172/598 171/180/599 148/173/600
