# This file uses centimeters as units for non-parametric coordinates.

mtllib jarlshouse.mtl
g default
v -2.880493 0.827210 3.667217
v -2.276525 0.827210 4.581263
v -2.880493 1.866518 3.667217
v -2.276525 1.866518 4.581263
v -2.740857 1.866518 3.574950
v -2.136889 1.866518 4.488997
v -2.740857 0.827210 3.574950
v -2.136889 0.827210 4.488997
v -2.585264 1.866518 3.472141
v -1.981296 1.866518 4.386187
v -1.981296 0.827210 4.386187
v -2.585264 0.827210 3.472141
v -2.740857 2.079953 3.574950
v -2.136889 2.079953 4.488997
v -1.981296 2.079953 4.386187
v -2.585264 2.079953 3.472141
v -2.427757 1.866518 3.368066
v -1.823789 1.866518 4.282112
v -1.823789 0.827210 4.282112
v -2.427757 0.827210 3.368066
v -2.427757 2.079953 3.368066
v -1.823789 2.079953 4.282112
v -2.585264 2.311760 3.472141
v -1.981296 2.311760 4.386187
v -1.823789 2.311760 4.282112
v -2.427757 2.311760 3.368066
v -2.278522 1.866518 3.269457
v -1.674555 1.866518 4.183504
v -1.674555 0.827210 4.183504
v -2.278522 0.827210 3.269457
v -2.278522 2.079953 3.269457
v -1.674555 2.079953 4.183504
v -2.278522 2.311760 3.269457
v -1.674555 2.311760 4.183504
v -2.427757 2.521766 3.368066
v -1.823789 2.521766 4.282112
v -1.674555 2.521766 4.183504
v -2.278522 2.521766 3.269457
v -3.476805 0.822783 4.061916
v -2.872837 0.822783 4.975962
v -3.476805 1.014880 4.061916
v -2.872837 1.014880 4.975962
v -3.337169 1.014880 3.969649
v -2.733201 1.014880 4.883696
v -3.337169 0.822783 3.969649
v -2.733201 0.822783 4.883696
v -3.181576 1.014880 3.866839
v -2.577608 1.014880 4.780886
v -2.577608 0.822783 4.780886
v -3.181576 0.822783 3.866839
v -3.337169 1.228314 3.969649
v -2.733201 1.228314 4.883696
v -2.577608 1.228314 4.780886
v -3.181576 1.228314 3.866839
v -3.024069 1.014880 3.762764
v -2.420101 1.014880 4.676811
v -2.420101 0.822783 4.676811
v -3.024069 0.822783 3.762764
v -3.024069 1.228314 3.762764
v -2.420101 1.228314 4.676811
v -3.181576 1.460122 3.866839
v -2.577608 1.460122 4.780886
v -2.420101 1.460122 4.676811
v -3.024069 1.460122 3.762764
v -2.874834 1.014880 3.664156
v -2.270867 1.014880 4.578203
v -2.270867 0.822783 4.578203
v -2.874834 0.822783 3.664156
v -2.874834 1.228314 3.664156
v -2.270867 1.228314 4.578203
v -2.874834 1.460122 3.664156
v -2.270867 1.460122 4.578203
v -3.024069 1.670127 3.762764
v -2.420101 1.670127 4.676811
v -2.270867 1.670127 4.578203
v -2.874834 1.670127 3.664156
vt 0.358845 0.818641
vt 0.496294 0.610626
vt 0.528072 0.631624
vt 0.390623 0.839639
vt 0.554335 0.071201
vt 0.691784 0.279216
vt 0.660006 0.300214
vt 0.522557 0.092199
vt 0.589744 0.047804
vt 0.727193 0.255819
vt 0.625589 0.024119
vt 0.763038 0.232135
vt 0.659551 0.001678
vt 0.797000 0.209694
vt 0.185714 0.582950
vt 0.323163 0.374934
vt 0.358572 0.398331
vt 0.221123 0.606347
vt 0.544136 0.512221
vt 0.681585 0.304206
vt 0.717430 0.327890
vt 0.579981 0.535906
vt 0.001992 0.818353
vt 0.139441 0.610338
vt 0.173403 0.632779
vt 0.035954 0.840794
vt 0.534251 0.818641
vt 0.671700 0.610626
vt 0.703478 0.631624
vt 0.566029 0.839639
vt 0.755343 0.373729
vt 0.892792 0.581744
vt 0.861014 0.602741
vt 0.723565 0.394726
vt 0.790752 0.350332
vt 0.928201 0.558347
vt 0.826597 0.326647
vt 0.964046 0.534662
vt 0.860559 0.304206
vt 0.998008 0.512221
vt 0.006721 0.582950
vt 0.144170 0.374934
vt 0.179579 0.398331
vt 0.042130 0.606347
vt 0.364707 0.582950
vt 0.502156 0.374934
vt 0.538001 0.398619
vt 0.400552 0.606635
vt 0.179542 0.818353
vt 0.316990 0.610338
vt 0.350952 0.632779
vt 0.213504 0.840794
vt 0.092513 0.001678
vt 0.300528 0.001678
vt 0.300528 0.228156
vt 0.092513 0.228156
vt 0.279530 0.001678
vt 0.279530 0.228156
vt 0.071515 0.001678
vt 0.071515 0.228156
vt 0.256133 0.001678
vt 0.256133 0.228156
vt 0.048118 0.228156
vt 0.048118 0.001678
vt 0.232448 0.001678
vt 0.232448 0.228156
vt 0.256133 0.274666
vt 0.279530 0.274666
vt 0.071515 0.274666
vt 0.048118 0.274666
vt 0.024433 0.228156
vt 0.024433 0.001678
vt 0.210007 0.001678
vt 0.210007 0.228156
vt 0.232448 0.274666
vt 0.024433 0.274666
vt 0.001992 0.228156
vt 0.001992 0.001678
vt 0.210007 0.274666
vt 0.232448 0.325180
vt 0.256133 0.325180
vt 0.048118 0.325180
vt 0.024433 0.325180
vt 0.001992 0.274666
vt 0.210007 0.325180
vt 0.001992 0.325180
vt 0.210007 0.370943
vt 0.232448 0.370943
vt 0.024433 0.370943
vt 0.001992 0.370943
vt 0.516188 0.228156
vt 0.308172 0.228156
vt 0.308172 0.001678
vt 0.516188 0.001678
vt 0.516188 0.274666
vt 0.308172 0.274666
vt 0.516188 0.325180
vt 0.308172 0.325180
vt 0.516188 0.370943
vt 0.308172 0.370943
vt 0.803206 0.209693
vt 0.803206 0.001678
vt 0.845067 0.001678
vt 0.845067 0.209693
vt 0.803206 0.022676
vt 0.845067 0.022676
vt 0.803206 0.230691
vt 0.845067 0.230691
vt 0.803206 0.046073
vt 0.845067 0.046073
vt 0.845067 0.254088
vt 0.803206 0.254088
vt 0.803206 0.069758
vt 0.845067 0.069758
vt 0.891577 0.046073
vt 0.891577 0.022676
vt 0.891577 0.230691
vt 0.891577 0.254088
vt 0.845067 0.277773
vt 0.803206 0.277773
vt 0.803206 0.092199
vt 0.845067 0.092199
vt 0.891577 0.069758
vt 0.891577 0.277773
vt 0.845067 0.300214
vt 0.803206 0.300214
vt 0.891577 0.092199
vt 0.942090 0.069758
vt 0.942090 0.046073
vt 0.942090 0.254088
vt 0.942090 0.277773
vt 0.891577 0.300214
vt 0.942090 0.092199
vt 0.942090 0.300214
vt 0.987853 0.092199
vt 0.987853 0.069758
vt 0.987853 0.277773
vt 0.987853 0.300214
vt 0.751517 0.606733
vt 0.751517 0.814748
vt 0.709657 0.814748
vt 0.709657 0.606733
vt 0.798027 0.606733
vt 0.798027 0.814748
vt 0.848541 0.606733
vt 0.848541 0.814748
vt 0.894304 0.606733
vt 0.894304 0.814748
vn -0.834316 0.000000 0.551286
vn -0.834316 0.000000 0.551286
vn -0.834316 0.000000 0.551286
vn -0.834316 0.000000 0.551286
vn 0.000000 1.000000 -0.000000
vn 0.000000 1.000000 -0.000000
vn 0.000000 1.000000 -0.000000
vn 0.000000 1.000000 -0.000000
vn 0.834317 0.000000 -0.551285
vn 0.834317 0.000000 -0.551285
vn 0.834317 0.000000 -0.551285
vn 0.834317 0.000000 -0.551285
vn 0.000000 -1.000000 -0.000000
vn 0.000000 -1.000000 -0.000000
vn 0.000000 -1.000000 -0.000000
vn 0.000000 -1.000000 -0.000000
vn 0.551284 0.000000 0.834318
vn 0.551285 0.000000 0.834317
vn 0.551285 0.000000 0.834317
vn 0.551284 0.000000 0.834318
vn -0.551285 0.000000 -0.834317
vn -0.551285 0.000000 -0.834317
vn -0.551285 0.000000 -0.834317
vn -0.551285 0.000000 -0.834317
vn 0.000000 1.000000 0.000000
vn 0.000000 1.000000 0.000000
vn 0.000000 1.000000 0.000000
vn 0.000000 1.000000 0.000000
vn 0.551286 0.000000 0.834316
vn 0.551286 0.000000 0.834316
vn 0.000000 -1.000000 -0.000000
vn 0.000000 -1.000000 -0.000000
vn -0.551285 0.000000 -0.834317
vn -0.551285 0.000000 -0.834317
vn -0.834316 0.000000 0.551286
vn -0.834316 0.000000 0.551286
vn -0.834316 0.000000 0.551286
vn -0.834316 0.000000 0.551286
vn 0.551285 0.000000 0.834317
vn 0.551285 0.000000 0.834317
vn 0.834317 0.000000 -0.551285
vn 0.834317 0.000000 -0.551285
vn -0.551284 0.000000 -0.834317
vn -0.551286 0.000000 -0.834316
vn 0.551286 0.000000 0.834316
vn 0.551286 0.000000 0.834316
vn 0.000000 -1.000000 -0.000000
vn 0.000000 -1.000000 -0.000000
vn -0.551285 0.000000 -0.834317
vn -0.551285 0.000000 -0.834317
vn -0.551285 0.000000 -0.834317
vn 0.000000 1.000000 -0.000001
vn 0.000000 1.000000 -0.000001
vn 0.000000 1.000000 -0.000001
vn 0.000000 1.000000 -0.000001
vn 0.551286 0.000000 0.834316
vn -0.834316 0.000000 0.551286
vn -0.834316 0.000000 0.551286
vn -0.834316 0.000000 0.551286
vn -0.834316 0.000000 0.551286
vn 0.551286 0.000000 0.834316
vn 0.551285 0.000000 0.834317
vn 0.834317 0.000000 -0.551285
vn 0.834317 0.000000 -0.551285
vn -0.551287 0.000000 -0.834316
vn -0.551285 0.000000 -0.834317
vn 0.551286 0.000000 0.834316
vn 0.551286 0.000000 0.834316
vn 0.000000 -1.000000 -0.000000
vn 0.000000 -1.000000 -0.000000
vn -0.551285 0.000000 -0.834317
vn -0.551285 0.000000 -0.834317
vn -0.551284 0.000000 -0.834317
vn 0.551286 0.000000 0.834316
vn -0.551284 0.000000 -0.834317
vn 0.000000 1.000000 -0.000000
vn 0.000000 1.000000 -0.000000
vn 0.000000 1.000000 -0.000000
vn 0.000000 1.000000 -0.000000
vn 0.551287 0.000000 0.834316
vn -0.834317 0.000000 0.551285
vn -0.834317 0.000000 0.551285
vn -0.834317 0.000000 0.551285
vn -0.834317 0.000000 0.551285
vn 0.551287 0.000000 0.834316
vn 0.551287 0.000000 0.834316
vn 0.834317 0.000000 -0.551285
vn 0.834317 0.000000 -0.551285
vn -0.551284 0.000000 -0.834317
vn -0.551284 0.000000 -0.834317
vn -0.834317 0.000000 0.551285
vn -0.834317 0.000000 0.551285
vn -0.834317 0.000000 0.551285
vn -0.834317 0.000000 0.551285
vn 0.000000 1.000000 0.000000
vn 0.000000 1.000000 0.000000
vn 0.000000 1.000000 0.000000
vn 0.000000 1.000000 0.000000
vn 0.834317 0.000000 -0.551285
vn 0.834317 0.000000 -0.551285
vn 0.834317 0.000000 -0.551285
vn 0.834317 0.000000 -0.551285
vn 0.000000 -1.000000 -0.000000
vn 0.000000 -1.000000 -0.000000
vn 0.000000 -1.000000 -0.000000
vn 0.000000 -1.000000 -0.000000
vn 0.551285 0.000000 0.834317
vn 0.551286 0.000000 0.834316
vn 0.551286 0.000000 0.834316
vn 0.551285 0.000000 0.834317
vn -0.551285 0.000000 -0.834317
vn -0.551286 0.000000 -0.834316
vn -0.551286 0.000000 -0.834316
vn -0.551285 0.000000 -0.834317
vn 0.000000 1.000000 0.000000
vn 0.000000 1.000000 0.000000
vn 0.000000 1.000000 0.000000
vn 0.000000 1.000000 0.000000
vn 0.551285 0.000000 0.834317
vn 0.551286 0.000000 0.834316
vn 0.000000 -1.000000 -0.000000
vn 0.000000 -1.000000 -0.000000
vn -0.551285 0.000000 -0.834317
vn -0.551285 0.000000 -0.834317
vn -0.834317 0.000000 0.551286
vn -0.834317 0.000000 0.551286
vn -0.834317 0.000000 0.551286
vn -0.834317 0.000000 0.551286
vn 0.551285 0.000000 0.834317
vn 0.551287 0.000000 0.834316
vn 0.834317 0.000000 -0.551285
vn 0.834317 0.000000 -0.551285
vn -0.551284 0.000000 -0.834317
vn -0.551285 0.000000 -0.834317
vn 0.551286 0.000000 0.834317
vn 0.551286 0.000000 0.834316
vn 0.000000 -1.000000 0.000000
vn 0.000000 -1.000000 0.000000
vn -0.551286 0.000000 -0.834317
vn -0.551286 0.000000 -0.834316
vn -0.551285 0.000000 -0.834317
vn 0.000000 1.000000 -0.000000
vn 0.000000 1.000000 -0.000000
vn 0.000000 1.000000 -0.000000
vn 0.000000 1.000000 -0.000000
vn 0.551286 0.000000 0.834316
vn -0.834316 0.000000 0.551286
vn -0.834316 0.000000 0.551286
vn -0.834316 0.000000 0.551286
vn -0.834316 0.000000 0.551286
vn 0.551286 0.000000 0.834316
vn 0.551284 0.000000 0.834318
vn 0.834317 0.000000 -0.551285
vn 0.834317 0.000000 -0.551285
vn -0.551286 0.000000 -0.834317
vn -0.551285 0.000000 -0.834317
vn 0.551287 0.000000 0.834315
vn 0.551287 0.000000 0.834316
vn 0.000000 -1.000000 0.000000
vn 0.000000 -1.000000 0.000000
vn -0.551286 0.000000 -0.834317
vn -0.551285 0.000000 -0.834317
vn -0.551286 0.000000 -0.834316
vn 0.551287 0.000000 0.834316
vn -0.551285 0.000000 -0.834317
vn 0.000000 1.000000 -0.000000
vn 0.000000 1.000000 -0.000000
vn 0.000000 1.000000 -0.000000
vn 0.000000 1.000000 -0.000000
vn 0.551287 0.000000 0.834316
vn -0.834317 0.000000 0.551285
vn -0.834317 0.000000 0.551285
vn -0.834317 0.000000 0.551285
vn -0.834317 0.000000 0.551285
vn 0.551286 0.000000 0.834316
vn 0.551286 0.000000 0.834316
vn 0.834317 0.000000 -0.551285
vn 0.834317 0.000000 -0.551285
vn -0.551284 0.000000 -0.834317
vn -0.551284 0.000000 -0.834317
s off
g stair1
usemtl initialShadingGroup
f 1/53/1 2/54/2 4/55/3 3/56/4
f 3/1/5 4/2/6 6/3/7 5/4/8
s 1
f 27/91/9 28/92/10 29/93/11 30/94/12
s 2
f 7/5/13 8/6/14 2/7/15 1/8/16
s 3
f 2/54/17 8/57/18 6/58/19 4/55/20
s 4
f 7/59/21 1/53/22 3/56/23 5/60/24
s off
f 13/15/25 14/16/26 15/17/27 16/18/28
s 3
f 6/58/19 8/57/18 11/61/29 10/62/30
s 2
f 8/6/14 7/5/13 12/9/31 11/10/32
s 4
f 7/59/21 5/60/24 9/63/33 12/64/34
s off
f 5/60/35 6/58/36 14/68/37 13/69/38
s 3
f 6/58/19 10/62/30 15/67/39 14/68/40
s 1
f 28/92/10 27/91/9 31/95/41 32/96/42
s 4
f 9/63/33 5/60/24 13/69/43 16/70/44
s 3
f 10/62/30 11/61/29 19/65/45 18/66/46
s 2
f 11/10/32 12/9/31 20/11/47 19/12/48
s 4
f 12/64/34 9/63/33 17/71/49 20/72/50
f 9/63/33 16/70/44 21/76/51 17/71/49
s off
f 23/19/52 24/20/53 25/21/54 26/22/55
s 3
f 15/67/39 10/62/30 18/66/46 22/75/56
s off
f 16/70/57 15/67/58 24/81/59 23/82/60
s 3
f 15/67/39 22/75/56 25/80/61 24/81/62
s 1
f 32/96/42 31/95/41 33/97/63 34/98/64
s 4
f 21/76/51 16/70/44 23/82/65 26/83/66
s 3
f 18/66/46 19/65/45 29/73/67 28/74/68
s 2
f 19/12/48 20/11/47 30/13/69 29/14/70
s 4
f 20/72/50 17/71/49 27/77/71 30/78/72
f 17/71/49 21/76/51 31/84/73 27/77/71
s 3
f 22/75/56 18/66/46 28/74/68 32/79/74
s 4
f 21/76/51 26/83/66 33/86/75 31/84/73
s off
f 35/23/76 36/24/77 37/25/78 38/26/79
s 3
f 25/80/61 22/75/56 32/79/74 34/85/80
s off
f 26/83/81 25/80/82 36/88/83 35/89/84
s 3
f 25/80/61 34/85/80 37/87/85 36/88/86
s 1
f 34/98/64 33/97/63 38/99/87 37/100/88
s 4
f 33/86/75 26/83/66 35/89/89 38/90/90
s off
f 39/101/91 40/102/92 42/103/93 41/104/94
f 41/27/95 42/28/96 44/29/97 43/30/98
s 5
f 65/139/99 66/140/100 67/141/101 68/142/102
s 6
f 45/31/103 46/32/104 40/33/105 39/34/106
s 7
f 40/102/107 46/105/108 44/106/109 42/103/110
s 8
f 45/107/111 39/101/112 41/104/113 43/108/114
s off
f 51/41/115 52/42/116 53/43/117 54/44/118
s 7
f 44/106/109 46/105/108 49/109/119 48/110/120
s 6
f 46/32/104 45/31/103 50/35/121 49/36/122
s 8
f 45/107/111 43/108/114 47/111/123 50/112/124
s off
f 43/108/125 44/106/126 52/116/127 51/117/128
s 7
f 44/106/109 48/110/120 53/115/129 52/116/130
s 5
f 66/140/100 65/139/99 69/143/131 70/144/132
s 8
f 47/111/123 43/108/114 51/117/133 54/118/134
s 7
f 48/110/120 49/109/119 57/113/135 56/114/136
s 6
f 49/36/122 50/35/121 58/37/137 57/38/138
s 8
f 50/112/124 47/111/123 55/119/139 58/120/140
f 47/111/123 54/118/134 59/124/141 55/119/139
s off
f 61/45/142 62/46/143 63/47/144 64/48/145
s 7
f 53/115/129 48/110/120 56/114/136 60/123/146
s off
f 54/118/147 53/115/148 62/129/149 61/130/150
s 7
f 53/115/129 60/123/146 63/128/151 62/129/152
s 5
f 70/144/132 69/143/131 71/145/153 72/146/154
s 8
f 59/124/141 54/118/134 61/130/155 64/131/156
s 7
f 56/114/136 57/113/135 67/121/157 66/122/158
s 6
f 57/38/138 58/37/137 68/39/159 67/40/160
s 8
f 58/120/140 55/119/139 65/125/161 68/126/162
f 55/119/139 59/124/141 69/132/163 65/125/161
s 7
f 60/123/146 56/114/136 66/122/158 70/127/164
s 8
f 59/124/141 64/131/156 71/134/165 69/132/163
s off
f 73/49/166 74/50/167 75/51/168 76/52/169
s 7
f 63/128/151 60/123/146 70/127/164 72/133/170
s off
f 64/131/171 63/128/172 74/136/173 73/137/174
s 7
f 63/128/151 72/133/170 75/135/175 74/136/176
s 5
f 72/146/154 71/145/153 76/147/177 75/148/178
s 8
f 71/134/165 64/131/156 73/137/179 76/138/180
g default
v -3.953226 -0.242242 7.904419
v -1.250000 -0.242242 7.820546
v -3.953226 0.000000 4.925594
v -1.250000 0.000000 4.925594
v 1.453226 0.000000 4.925594
v 4.156452 0.000000 4.925594
v 6.859679 -0.242242 4.925594
v -7.196155 -0.242242 2.497797
v -3.953226 0.000000 2.497797
v -1.250000 0.000000 2.497797
v 1.453226 0.000000 2.497797
v 4.156452 0.000000 2.497797
v 6.859679 0.000000 2.497797
v -6.656453 0.000000 0.070000
v -3.953226 0.000000 0.070000
v -1.250000 0.000000 0.070000
v 1.453226 0.000000 0.070000
v 4.156452 0.000000 0.070000
v 6.859679 0.000000 0.070000
v -10.144218 -0.242242 -2.357798
v -6.656453 0.000000 -2.357798
v -3.953226 0.000000 -2.357798
v -1.250000 0.000000 -2.357798
v 1.453226 0.000000 -2.357798
v 4.156452 0.000000 -2.357798
v 6.859679 0.000000 -2.357798
v -9.359679 -0.242242 -4.785594
v -6.656453 0.000000 -4.785594
v -3.953226 0.000000 -4.785594
v -1.250000 0.000000 -4.785594
v 1.453226 0.000000 -4.785594
v 4.156452 0.000000 -4.785594
v 6.859679 0.000000 -4.785594
v -1.250000 -0.242242 -7.213392
v 1.453226 -0.242242 -7.213392
v 4.156452 -0.242242 -7.213392
v -5.948388 -0.242242 4.925594
v -4.558616 -0.242242 7.353392
v 1.453226 -0.242242 6.967841
v 4.156452 -0.242242 6.259069
v 7.752421 -0.242242 2.497797
v 8.503238 -0.242242 0.070000
v 8.999710 -0.242242 -2.357798
v 8.874280 -0.242242 -4.785594
v 6.859679 -0.242242 -6.174552
v -3.953226 -0.242242 -6.568993
v -6.656453 -0.242242 -5.945076
v -8.737736 -0.242242 0.070000
v -5.948388 0.881898 4.925594
v -4.558616 0.881898 7.353392
v -3.953226 0.881898 7.904419
v -3.953226 0.881898 4.925594
v -1.250000 0.881898 7.820546
v -1.250000 0.881898 4.925594
v 1.453226 0.881898 6.967841
v 1.453226 0.881898 6.235595
v 4.156452 0.881898 6.259069
v 4.156452 0.881898 5.585595
v 6.859679 0.881898 4.925594
v -7.196155 0.881898 2.497797
v -3.953226 0.881898 2.497797
v -2.980001 0.881898 2.497797
v 7.389679 0.881898 2.497797
v 7.752421 0.881898 2.497797
v -8.737736 0.881898 0.070000
v -6.656453 0.881898 0.070000
v -3.953226 0.881898 0.070000
v -2.130000 0.881898 0.070000
v 7.769679 0.881898 0.070000
v 8.503238 0.881898 0.070000
v -6.656453 0.881898 -2.357798
v -10.144218 0.881898 -2.357798
v -3.953226 0.881898 -2.357798
v -1.250000 0.881898 -2.357798
v 7.769679 0.881898 -2.357798
v 8.999710 0.881898 -2.357798
v -6.656453 0.881898 -4.785594
v -9.359679 0.881898 -4.785594
v -3.953226 0.881898 -4.785594
v -0.620000 0.881898 -3.995594
v 1.453226 0.881898 -4.785594
v 4.156452 0.881898 -5.845594
v 6.859679 0.881898 -4.785594
v 8.874280 0.881898 -4.785594
v -6.656453 0.881898 -5.945076
v -3.953226 0.881898 -6.568993
v -1.250000 0.881898 -7.213392
v 1.453226 0.881898 -7.213392
v 4.156452 0.881898 -7.213392
v 6.859679 0.881898 -6.174552
v -1.250000 2.637241 4.925594
v 1.453226 2.637241 6.235595
v 1.453226 2.637241 2.497797
v -2.980001 2.637241 2.497797
v 4.156452 2.637241 5.585595
v 4.156452 2.637241 2.497797
v 6.859679 2.637241 4.925594
v 7.389679 2.637241 2.497797
v 1.453226 2.637241 0.070000
v -2.130000 2.637241 0.070000
v 4.156452 2.637241 0.070000
v 7.769679 2.637241 0.070000
v 1.453226 2.637241 -2.357798
v -1.250000 2.637241 -2.357798
v 4.156452 2.637241 -2.357798
v 7.769679 2.637241 -2.357798
v 1.453226 2.637241 -4.785594
v -0.620000 2.637241 -3.995594
v 4.156452 2.637241 -5.845594
v 6.859679 2.637241 -4.785594
vt 0.963058 0.551327
vt 0.963058 0.475844
vt 0.998008 0.475844
vt 0.998008 0.551327
vt 0.963058 0.458713
vt 0.998008 0.458713
vt 0.963058 0.626809
vt 0.998008 0.626809
vt 0.963058 0.702291
vt 0.998008 0.702291
vt 0.963058 0.777773
vt 0.998008 0.777773
vt 0.963058 0.853256
vt 0.998008 0.853256
vt 0.615673 0.885489
vt 0.615673 0.810008
vt 0.650623 0.810008
vt 0.650623 0.885489
vt 0.615673 0.734525
vt 0.650623 0.734525
vt 0.615673 0.659042
vt 0.650623 0.659042
vt 0.615673 0.583561
vt 0.650623 0.583561
vt 0.615673 0.540377
vt 0.650623 0.540377
vt 0.513876 0.842305
vt 0.513876 0.766824
vt 0.568451 0.766824
vt 0.568451 0.842305
vt 0.513876 0.691341
vt 0.568451 0.691341
vt 0.513876 0.615858
vt 0.568451 0.615858
vt 0.513876 0.540377
vt 0.568451 0.540377
vt 0.453164 0.691344
vt 0.453164 0.615862
vt 0.507740 0.615862
vt 0.507740 0.691344
vt 0.453164 0.540380
vt 0.507740 0.540380
vt 0.453164 0.766826
vt 0.507740 0.766826
vt 0.453164 0.817747
vt 0.507740 0.817747
vt 0.094606 0.419228
vt 0.019123 0.380421
vt 0.001992 0.363517
vt 0.094606 0.363517
vt 0.004600 0.288034
vt 0.094606 0.288034
vt 0.170087 0.454069
vt 0.170087 0.363517
vt 0.031111 0.212553
vt 0.053877 0.212553
vt 0.170087 0.336341
vt 0.245570 0.363517
vt 0.245570 0.438998
vt 0.053147 0.137068
vt 0.074087 0.137068
vt 0.245570 0.312605
vt 0.321053 0.363517
vt 0.321053 0.438998
vt 0.245570 0.497114
vt 0.094606 0.061587
vt 0.321053 0.288034
vt 0.396534 0.363517
vt 0.396534 0.438998
vt 0.321053 0.536387
vt 0.371973 0.270443
vt 0.451981 0.363517
vt 0.432583 0.438998
vt 0.396534 0.514481
vt 0.472017 0.288034
vt 0.396534 0.212553
vt 0.472017 0.212553
vt 0.429491 0.137068
vt 0.472017 0.137068
vt 0.396534 0.061587
vt 0.439718 0.061587
vt 0.396534 0.005334
vt 0.321053 0.036177
vt 0.321053 0.001830
vt 0.245570 0.036177
vt 0.245570 0.015694
vt 0.170087 0.046788
vt 0.170087 0.036659
vt 0.705066 0.581108
vt 0.780548 0.540379
vt 0.780548 0.656589
vt 0.656759 0.656589
vt 0.856031 0.560588
vt 0.856031 0.656589
vt 0.780548 0.732072
vt 0.680494 0.732072
vt 0.931513 0.581108
vt 0.946312 0.656589
vt 0.856031 0.732072
vt 0.780548 0.807555
vt 0.705066 0.807555
vt 0.956923 0.732072
vt 0.856031 0.807555
vt 0.780548 0.883036
vt 0.722657 0.858475
vt 0.956923 0.807555
vt 0.856031 0.915993
vt 0.931513 0.883036
vt 0.857091 0.419226
vt 0.857091 0.363515
vt 0.949705 0.363515
vt 0.932574 0.380419
vt 0.781610 0.454067
vt 0.781610 0.363515
vt 0.857091 0.288032
vt 0.947098 0.288032
vt 0.706127 0.438997
vt 0.706127 0.363515
vt 0.781610 0.288032
vt 0.857091 0.212550
vt 0.920586 0.212550
vt 0.706127 0.497113
vt 0.630645 0.438997
vt 0.630645 0.363515
vt 0.706127 0.288032
vt 0.781610 0.212550
vt 0.857091 0.137068
vt 0.898551 0.137068
vt 0.630645 0.536386
vt 0.555162 0.438997
vt 0.555162 0.363515
vt 0.630645 0.288032
vt 0.706127 0.212550
vt 0.781610 0.137068
vt 0.857091 0.061586
vt 0.555162 0.514479
vt 0.519113 0.438997
vt 0.499715 0.363515
vt 0.555162 0.288032
vt 0.630645 0.212550
vt 0.706127 0.137068
vt 0.781610 0.061586
vt 0.479680 0.288032
vt 0.555162 0.212550
vt 0.630645 0.137068
vt 0.706127 0.061586
vt 0.781610 0.036658
vt 0.479680 0.212550
vt 0.555162 0.137068
vt 0.630645 0.061586
vt 0.706127 0.015693
vt 0.479680 0.137068
vt 0.555162 0.061586
vt 0.630645 0.001829
vt 0.511979 0.061586
vt 0.555162 0.005332
vt 0.574587 0.842307
vt 0.574587 0.766824
vt 0.609537 0.766824
vt 0.609537 0.842307
vt 0.574587 0.691342
vt 0.609537 0.691342
vt 0.574587 0.615859
vt 0.609537 0.615859
vt 0.574587 0.540377
vt 0.609537 0.540377
vt 0.992125 0.379241
vt 0.992125 0.454722
vt 0.957174 0.454722
vt 0.957174 0.379241
vt 0.992125 0.303756
vt 0.957174 0.303756
vt 0.992125 0.228275
vt 0.957174 0.228275
vt 0.992125 0.152794
vt 0.957174 0.152794
vt 0.992125 0.077309
vt 0.957174 0.077309
vt 0.992125 0.001828
vt 0.957174 0.001828
vt 0.392453 0.766826
vt 0.392453 0.691344
vt 0.447029 0.691344
vt 0.447029 0.766826
vt 0.392453 0.615862
vt 0.447029 0.615862
vt 0.392453 0.540380
vt 0.447029 0.540380
vt 0.386318 0.691346
vt 0.386318 0.749236
vt 0.331746 0.749236
vt 0.331746 0.691346
vt 0.386318 0.615862
vt 0.331746 0.615862
vt 0.386318 0.540380
vt 0.331746 0.540380
vn 0.000000 1.000000 -0.000000
vn 0.000000 1.000000 -0.000000
vn 0.000000 1.000000 -0.000000
vn 0.000000 1.000000 -0.000000
vn 0.000000 1.000000 0.000000
vn 0.000000 1.000000 0.000000
vn 0.000000 1.000000 0.000000
vn 0.000000 1.000000 0.000000
vn 0.000000 1.000000 0.000000
vn 0.000000 1.000000 0.000000
vn 0.000000 1.000000 0.000000
vn 0.000000 1.000000 0.000000
vn 0.000000 1.000000 0.000000
vn 0.000000 1.000000 0.000000
vn 0.000000 1.000000 -0.000000
vn 0.000000 1.000000 -0.000000
vn 0.000000 1.000000 -0.000000
vn 0.000000 1.000000 -0.000000
vn 0.000000 1.000000 -0.000000
vn 0.000000 1.000000 -0.000000
vn 0.000000 1.000000 -0.000000
vn 0.000000 1.000000 0.000000
vn 0.000000 1.000000 0.000000
vn 0.000000 1.000000 0.000000
vn 0.000000 1.000000 0.000000
vn 0.000000 1.000000 0.000000
vn 0.000000 1.000000 0.000000
vn 0.000000 1.000000 0.000000
vn 0.000000 1.000000 0.000000
vn 0.000000 1.000000 0.000000
vn 0.000000 1.000000 0.000000
vn 0.000000 1.000000 0.000000
vn 0.000000 1.000000 0.000000
vn 0.000000 1.000000 0.000000
vn 0.000000 1.000000 0.000000
vn 0.000000 1.000000 0.000000
vn 0.000000 1.000000 0.000000
vn 0.000000 1.000000 0.000000
vn 0.000000 1.000000 0.000000
vn 0.000000 1.000000 0.000000
vn 0.000000 1.000000 0.000000
vn 0.000000 1.000000 0.000000
vn 0.000000 1.000000 0.000000
vn 0.000000 1.000000 -0.000000
vn 0.000000 1.000000 -0.000000
vn 0.000000 1.000000 0.000000
vn 0.000000 1.000000 0.000000
vn 0.000000 1.000000 0.000000
vn 0.000000 1.000000 -0.000000
vn 0.000000 1.000000 0.000000
vn 0.000000 1.000000 0.000000
vn 0.000000 1.000000 0.000000
vn 0.000000 1.000000 0.000000
vn 0.000000 1.000000 -0.000000
vn 0.000000 1.000000 -0.000000
vn 0.000000 1.000000 0.000000
vn 0.000000 1.000000 0.000000
vn 0.000000 1.000000 -0.000000
vn 0.000000 1.000000 -0.000000
vn 0.000000 1.000000 -0.000000
vn 0.000000 1.000000 0.000000
vn 0.000000 1.000000 0.000000
vn 0.000000 1.000000 0.000000
vn 0.095585 -0.994822 -0.034525
vn 0.038685 -0.998316 -0.043218
vn 0.017953 -0.996594 -0.080491
vn 0.107642 -0.991572 -0.072096
vn -0.004085 -0.998879 -0.047163
vn -0.006826 -0.996073 -0.088277
vn -0.007752 -0.998528 -0.053680
vn -0.016426 -0.993600 -0.111759
vn -0.027641 -0.997377 -0.066899
vn -0.031681 -0.988345 -0.148897
vn -0.055301 -0.996557 -0.061773
vn 0.067614 -0.996921 -0.039718
vn 0.033014 -0.999294 -0.017909
vn 0.000000 -1.000000 0.000000
vn 0.000000 -1.000000 0.000000
vn -0.011200 -0.999860 -0.012471
vn -0.067616 -0.997251 -0.030290
vn -0.202286 -0.978410 -0.042357
vn 0.091320 -0.995277 -0.032926
vn 0.049594 -0.998331 -0.029598
vn 0.010927 -0.999866 -0.012167
vn 0.000000 -1.000000 0.000000
vn 0.000000 -1.000000 0.000000
vn 0.000000 -1.000000 0.000000
vn -0.056465 -0.998378 -0.007252
vn -0.147368 -0.988911 -0.018363
vn 0.081761 -0.996645 -0.003714
vn 0.042886 -0.999076 -0.002747
vn 0.000000 -1.000000 0.000000
vn 0.000000 -1.000000 0.000000
vn 0.000000 -1.000000 0.000000
vn 0.000000 -1.000000 0.000000
vn -0.051606 -0.998666 -0.001972
vn -0.120907 -0.992655 -0.004263
vn 0.078548 -0.996664 0.022152
vn 0.040833 -0.997672 0.054612
vn 0.006728 -0.998331 0.057358
vn 0.003071 -0.998667 0.051532
vn 0.000000 -0.998758 0.049827
vn -0.005057 -0.998601 0.052635
vn -0.048369 -0.997574 0.050061
vn -0.116168 -0.993019 0.020450
vn 0.032447 -0.984782 0.170741
vn 0.015352 -0.991323 0.130547
vn 0.005730 -0.994392 0.105599
vn 0.000000 -0.995059 0.099285
vn -0.008946 -0.993986 0.109139
vn -0.034924 -0.990755 0.131090
vn -0.867864 0.000000 0.496802
vn -0.867864 0.000000 0.496802
vn -0.867864 0.000000 0.496802
vn -0.867864 0.000000 0.496802
vn -0.673123 0.000000 0.739530
vn -0.673123 0.000000 0.739530
vn -0.673123 0.000000 0.739530
vn -0.673123 0.000000 0.739530
vn 0.031012 0.000000 0.999519
vn 0.031012 0.000000 0.999519
vn 0.031012 0.000000 0.999519
vn 0.031012 0.000000 0.999519
vn 0.300828 0.000000 0.953678
vn 0.300828 0.000000 0.953678
vn 0.300828 0.000000 0.953678
vn 0.300828 0.000000 0.953678
vn 0.253622 0.000000 0.967303
vn 0.253622 0.000000 0.967303
vn 0.253622 0.000000 0.967303
vn 0.253622 0.000000 0.967303
vn 0.442393 0.000000 0.896821
vn 0.442393 0.000000 0.896821
vn 0.442393 0.000000 0.896821
vn 0.442393 0.000000 0.896821
vn -0.889409 0.000000 0.457112
vn -0.889409 0.000000 0.457112
vn -0.889409 0.000000 0.457112
vn -0.889409 0.000000 0.457112
vn 0.938557 0.000000 0.345123
vn 0.938557 0.000000 0.345123
vn 0.938557 0.000000 0.345123
vn 0.938557 0.000000 0.345123
vn -0.844194 0.000000 0.536039
vn -0.844194 0.000000 0.536039
vn -0.844194 0.000000 0.536039
vn -0.844194 0.000000 0.536039
vn 0.955357 0.000000 0.295452
vn 0.955357 0.000000 0.295452
vn 0.955357 0.000000 0.295452
vn 0.955357 0.000000 0.295452
vn -0.865285 0.000000 0.501280
vn -0.865285 0.000000 0.501280
vn -0.865285 0.000000 0.501280
vn -0.865285 0.000000 0.501280
vn 0.979725 0.000000 0.200349
vn 0.979725 0.000000 0.200349
vn 0.979725 0.000000 0.200349
vn 0.979725 0.000000 0.200349
vn -0.951551 0.000000 -0.307492
vn -0.951551 0.000000 -0.307492
vn -0.951551 0.000000 -0.307492
vn -0.951551 0.000000 -0.307492
vn 0.998668 0.000000 -0.051595
vn 0.998668 0.000000 -0.051595
vn 0.998668 0.000000 -0.051595
vn 0.998668 0.000000 -0.051595
vn -0.394194 0.000000 -0.919027
vn -0.394194 0.000000 -0.919027
vn -0.394194 0.000000 -0.919027
vn -0.394194 0.000000 -0.919027
vn -0.224892 0.000000 -0.974384
vn -0.224892 0.000000 -0.974384
vn -0.224892 0.000000 -0.974384
vn -0.224892 0.000000 -0.974384
vn -0.231884 0.000000 -0.972743
vn -0.231884 0.000000 -0.972743
vn -0.231884 0.000000 -0.972743
vn -0.231884 0.000000 -0.972743
vn 0.000000 0.000000 -1.000000
vn 0.000000 0.000000 -1.000000
vn 0.000000 0.000000 -1.000000
vn 0.000000 0.000000 -1.000000
vn 0.000000 0.000000 -1.000000
vn 0.000000 0.000000 -1.000000
vn 0.000000 0.000000 -1.000000
vn 0.000000 0.000000 -1.000000
vn 0.358720 0.000000 -0.933445
vn 0.358720 0.000000 -0.933445
vn 0.358720 0.000000 -0.933445
vn 0.358720 0.000000 -0.933445
vn 0.567616 0.000000 -0.823293
vn 0.567616 0.000000 -0.823293
vn 0.567616 0.000000 -0.823293
vn 0.567616 0.000000 -0.823293
vn -0.436097 0.000000 0.899900
vn -0.436097 0.000000 0.899900
vn -0.436097 0.000000 0.899900
vn -0.436097 0.000000 0.899900
vn -0.814390 0.000000 0.580318
vn -0.814390 0.000000 0.580318
vn -0.814390 0.000000 0.580318
vn -0.814390 0.000000 0.580318
vn 0.233790 0.000000 0.972287
vn 0.233790 0.000000 0.972287
vn 0.233790 0.000000 0.972287
vn 0.233790 0.000000 0.972287
vn 0.237186 0.000000 0.971464
vn 0.237186 0.000000 0.971464
vn 0.237186 0.000000 0.971464
vn 0.237186 0.000000 0.971464
vn 0.976991 0.000000 0.213282
vn 0.976991 0.000000 0.213282
vn 0.976991 0.000000 0.213282
vn 0.976991 0.000000 0.213282
vn -0.943825 0.000000 -0.330445
vn -0.943825 0.000000 -0.330445
vn -0.943825 0.000000 -0.330445
vn -0.943825 0.000000 -0.330445
vn 0.987971 0.000000 0.154638
vn 0.987971 0.000000 0.154638
vn 0.987971 0.000000 0.154638
vn 0.987971 0.000000 0.154638
vn -0.940146 0.000000 -0.340773
vn -0.940146 0.000000 -0.340773
vn -0.940146 0.000000 -0.340773
vn -0.940146 0.000000 -0.340773
vn 1.000000 0.000000 0.000000
vn 1.000000 0.000000 0.000000
vn 1.000000 0.000000 0.000000
vn 1.000000 0.000000 0.000000
vn -0.356074 0.000000 -0.934458
vn -0.356074 0.000000 -0.934458
vn -0.356074 0.000000 -0.934458
vn -0.356074 0.000000 -0.934458
vn -0.933331 0.000000 -0.359018
vn -0.933331 0.000000 -0.359018
vn -0.933331 0.000000 -0.359018
vn -0.933331 0.000000 -0.359018
vn -0.365061 0.000000 -0.930984
vn -0.365061 0.000000 -0.930984
vn -0.365061 0.000000 -0.930984
vn -0.365061 0.000000 -0.930984
vn 0.936383 0.000000 -0.350980
vn 0.936383 0.000000 -0.350980
vn 0.936383 0.000000 -0.350980
vn 0.936383 0.000000 -0.350980
vn 0.365061 0.000000 -0.930984
vn 0.365061 0.000000 -0.930984
vn 0.365061 0.000000 -0.930984
vn 0.365061 0.000000 -0.930984
s 1
g hill
usemtl lambert4SG
f 125/195/181 126/196/182 127/197/183 128/198/184
f 127/197/183 129/199/185 130/200/186 128/198/184
f 129/199/185 131/203/187 132/204/188 130/200/186
f 131/203/187 133/208/189 134/209/190 132/204/188
f 133/208/189 135/214/191 134/209/190
f 136/201/192 125/195/181 128/198/184 137/202/193
f 128/198/184 130/200/186 138/205/194 137/202/193
s 2
f 167/237/195 168/238/196 169/239/197 170/240/198
f 168/238/196 171/241/199 172/242/200 169/239/197
f 171/241/199 173/245/201 174/246/202 172/242/200
s 1
f 135/214/203 140/236/204 139/235/205
f 141/213/206 136/201/192 142/207/207
f 136/201/192 137/202/193 143/206/208 142/207/207
f 137/202/193 138/205/194 144/210/209 143/206/208
s 2
f 170/240/198 169/239/197 175/243/210 176/244/211
f 169/239/197 172/242/200 177/247/212 175/243/210
f 172/242/200 174/246/202 178/250/213 177/247/212
s 1
f 139/235/205 140/236/204 146/234/214 145/233/215
f 141/213/206 142/207/207 147/212/216 148/218/217
f 142/207/207 143/206/208 149/211/218 147/212/216
f 143/206/208 144/210/209 150/215/219 149/211/218
s 2
f 176/244/211 175/243/210 179/248/220 180/249/221
f 175/243/210 177/247/212 181/251/222 179/248/220
f 177/247/212 178/250/213 182/254/223 181/251/222
s 1
f 145/233/215 146/234/214 152/232/224 151/231/225
f 148/218/217 147/212/216 153/217/226 154/222/227
f 147/212/216 149/211/218 155/216/228 153/217/226
f 149/211/218 150/215/219 156/219/229 155/216/228
s 2
f 180/249/221 179/248/220 183/252/230 184/253/231
f 179/248/220 181/251/222 185/255/232 183/252/230
f 181/251/222 182/254/223 186/256/233 185/255/232
s 1
f 151/231/225 152/232/224 160/230/234 159/228/235
f 154/222/227 153/217/226 161/221/236
f 153/217/226 155/216/228 162/220/237 161/221/236
f 155/216/228 156/219/229 163/223/238 162/220/237
f 156/219/229 157/224/239 164/225/240 163/223/238
f 157/224/239 158/226/241 165/227/242 164/225/240
f 158/226/241 159/228/235 166/229/243 165/227/242
f 159/228/235 160/230/234 166/229/243
s 4
usemtl initialShadingGroup
f 113/257/244 79/258/245 77/259/246 114/260/247
f 77/259/246 79/258/245 80/263/248 78/264/249
f 78/264/249 80/263/248 81/268/250 115/269/251
f 115/269/251 81/268/250 82/275/252 116/276/253
f 116/276/253 82/275/252 83/283/254
f 84/261/255 85/262/256 79/258/245 113/257/244
f 79/258/245 85/262/256 86/267/257 80/263/248
f 80/263/248 86/267/257 87/274/258 81/268/250
f 81/268/250 87/274/258 88/282/259 82/275/252
f 82/275/252 88/282/259 89/290/260 83/283/254
f 83/283/254 89/290/260 117/295/261
f 124/270/262 90/265/263 84/261/255
f 84/261/255 90/265/263 91/266/264 85/262/256
f 85/262/256 91/266/264 92/273/265 86/267/257
f 86/267/257 92/273/265 93/281/266 87/274/258
f 87/274/258 93/281/266 94/289/267 88/282/259
f 88/282/259 94/289/267 95/294/268 89/290/260
f 89/290/260 95/294/268 118/299/269 117/295/261
f 124/270/262 96/277/270 97/271/271 90/265/263
f 90/265/263 97/271/271 98/272/272 91/266/264
f 91/266/264 98/272/272 99/280/273 92/273/265
f 92/273/265 99/280/273 100/288/274 93/281/266
f 93/281/266 100/288/274 101/293/275 94/289/267
f 94/289/267 101/293/275 102/298/276 95/294/268
f 95/294/268 102/298/276 119/302/277 118/299/269
f 96/277/270 103/284/278 104/278/279 97/271/271
f 97/271/271 104/278/279 105/279/280 98/272/272
f 98/272/272 105/279/280 106/287/281 99/280/273
f 99/280/273 106/287/281 107/292/282 100/288/274
f 100/288/274 107/292/282 108/297/283 101/293/275
f 101/293/275 108/297/283 109/301/284 102/298/276
f 102/298/276 109/301/284 120/304/285 119/302/277
f 103/284/278 123/285/286 104/278/279
f 104/278/279 123/285/286 122/286/287 105/279/280
f 105/279/280 122/286/287 110/291/288 106/287/281
f 106/287/281 110/291/288 111/296/289 107/292/282
f 107/292/282 111/296/289 112/300/290 108/297/283
f 108/297/283 112/300/290 121/303/291 109/301/284
f 109/301/284 121/303/291 120/304/285
s off
usemtl lambert5SG
f 113/149/292 114/150/293 126/151/294 125/152/295
f 114/150/296 77/153/297 127/154/298 126/151/299
f 77/305/300 78/306/301 129/307/302 127/308/303
f 78/306/304 115/309/305 131/310/306 129/307/307
f 115/309/308 116/311/309 133/312/310 131/310/311
f 116/311/312 83/313/313 135/314/314 133/312/315
f 84/155/316 113/149/317 125/152/318 136/156/319
f 83/163/320 117/164/321 140/165/322 135/166/323
f 124/157/324 84/155/325 136/156/326 141/158/327
f 117/164/328 118/167/329 146/168/330 140/165/331
f 96/159/332 124/157/333 141/158/334 148/160/335
f 118/167/336 119/169/337 152/170/338 146/168/339
f 103/161/340 96/159/341 148/160/342 154/162/343
f 119/169/344 120/171/345 160/172/346 152/170/347
f 123/315/348 103/316/349 154/317/350 161/318/351
f 122/319/352 123/315/353 161/318/354 162/320/355
f 110/321/356 122/319/357 162/320/358 163/322/359
f 111/323/360 110/321/361 163/322/362 164/324/363
f 112/325/364 111/323/365 164/324/366 165/326/367
f 121/327/368 112/325/369 165/326/370 166/328/371
f 120/171/372 121/173/373 166/174/374 160/172/375
f 130/329/376 132/330/377 168/331/378 167/332/379
f 138/186/380 130/189/381 167/190/382 170/187/383
f 132/330/384 134/333/385 171/334/386 168/331/387
f 134/333/388 135/335/389 173/336/390 171/334/391
f 135/175/392 139/176/393 174/177/394 173/178/395
f 144/185/396 138/186/397 170/187/398 176/188/399
f 139/176/400 145/179/401 178/180/402 174/177/403
f 150/191/404 144/185/405 176/188/406 180/192/407
f 145/179/408 151/181/409 182/182/410 178/180/411
f 157/337/412 156/338/413 184/339/414 183/340/415
f 156/193/416 150/191/417 180/192/418 184/194/419
f 158/341/420 157/337/421 183/340/422 185/342/423
f 151/181/424 159/183/425 186/184/426 182/182/427
f 159/343/428 158/341/429 185/342/430 186/344/431
g default
v -2.034746 2.624866 1.306039
v 0.306033 2.624866 4.856056
v -2.034746 4.483137 1.306039
v 0.306033 4.483137 4.856056
v 4.352220 4.483137 -2.907871
v 6.692997 4.483137 0.642145
v 4.352220 2.624866 -2.907871
v 6.692997 2.624866 0.642145
v -0.862895 6.037546 3.083260
v 5.521148 6.037546 -1.135076
v 0.202074 4.443200 5.055535
v 6.917239 4.443200 0.625088
v 5.685172 6.077484 -1.243457
v -1.026920 6.077484 3.191641
v -2.258988 4.443200 1.323097
v 4.456179 4.443200 -3.107351
v 0.230569 4.513937 5.098692
v 6.945735 4.513937 0.668246
v 5.685172 6.148221 -1.243457
v -1.026920 6.148221 3.191641
v -2.287483 4.513937 1.279939
v 4.427684 4.513937 -3.150507
v 2.111834 2.624866 -3.223249
v -1.440539 2.624866 -0.886050
v 2.111834 6.093137 -3.223249
v -1.440539 6.093137 -0.886050
v 6.319305 6.093137 3.167961
v 2.766932 6.093137 5.505160
v 6.319305 2.624866 3.167961
v 2.766932 2.624866 5.505160
v 0.335648 4.629002 -2.054649
v 0.335648 2.624866 -2.054649
v -1.440539 4.629002 -0.886050
v 0.335648 6.093137 -2.054649
v 2.111834 4.629002 -3.223249
v 0.663197 6.093137 2.309556
v 4.543118 6.093137 4.336560
v 4.215570 6.093137 -0.027645
v 4.543118 4.629002 4.336561
v 2.766932 4.629002 5.505160
v 4.543118 2.624866 4.336560
v 6.319305 4.629002 3.167961
v 2.439383 2.624866 1.140956
v 0.663197 2.624866 2.309556
v 4.215570 2.624866 -0.027645
v 0.663197 4.629002 2.309556
v 4.215570 4.629002 -0.027645
v 2.111834 3.774960 -3.223249
v 4.215570 3.774960 -0.027645
v 6.319305 3.774960 3.167961
v 4.543118 3.774960 4.336560
v 2.766932 3.774960 5.505160
v 0.663197 3.774960 2.309556
v -1.440539 3.774960 -0.886050
v 0.335648 3.774960 -2.054649
v 2.068791 3.718845 -3.796750
v 4.448978 3.718845 -0.181211
v 6.829166 3.718845 3.434330
v 4.819571 3.718845 4.756494
v 2.809976 3.718845 6.078660
v 0.429788 3.718845 2.463121
v -1.950400 3.718845 -1.152419
v 0.059195 3.718845 -2.474585
v 0.330221 8.903136 -2.051064
v 4.548543 8.903136 4.332975
v 2.098509 6.035983 -3.400779
v 4.287823 6.035983 -0.075182
v 0.244423 8.960290 -2.180911
v -1.598370 6.035983 -0.968505
v 0.590944 6.035983 2.357092
v 2.780256 6.035983 5.682689
v 4.634341 8.960290 4.462822
v 6.477136 6.035983 3.250416
v 2.147488 6.080444 -3.433083
v 4.336829 6.080400 -0.107503
v 0.244396 9.004707 -2.180893
v 2.439384 9.033905 1.140955
v -1.647403 6.080358 -0.936166
v 0.541938 6.080400 2.389414
v 2.731277 6.080444 5.714993
v 4.634369 9.004707 4.462805
v 6.526169 6.080358 3.218077
v -0.701812 2.623287 3.465154
v -0.629293 2.623287 3.407275
v -0.701812 3.936713 3.465154
v -0.629293 3.936713 3.407275
v -1.253719 3.936713 2.631289
v -1.181200 3.936713 2.573411
v -1.253719 2.623287 2.631289
v -1.181200 2.623287 2.573411
v -1.124150 4.828854 0.747622
v 1.177834 4.828854 4.236840
v -1.124150 6.655611 0.747622
v 1.177834 6.655611 4.236840
v 3.480418 6.655611 -2.288656
v 5.782401 6.655611 1.200562
v 3.480418 4.828854 -2.288656
v 5.782401 4.828854 1.200562
v 0.028279 8.183660 2.494406
v 4.629973 8.183660 -0.546221
v 1.118674 6.616351 4.404500
v 5.959851 6.616351 1.212200
v 4.748204 8.222919 -0.624344
v -0.089952 8.222919 2.572528
v -1.301600 6.616351 0.735985
v 3.539579 6.616351 -2.456315
v 1.146690 6.685889 4.446923
v 5.987867 6.685889 1.254623
v 4.748204 8.292458 -0.624344
v -0.089952 8.292458 2.572528
v -1.329616 6.685889 0.693562
v 3.511563 6.685889 -2.498738
vt 0.001928 0.642082
vt 0.109111 0.571409
vt 0.236338 0.764245
vt 0.129155 0.834918
vt 0.273781 0.204737
vt 0.407546 0.001992
vt 0.465264 0.040051
vt 0.331359 0.242704
vt 0.522842 0.078017
vt 0.389078 0.280763
vt 0.772088 0.202459
vt 0.644861 0.009623
vt 0.644346 0.002852
vt 0.778111 0.205598
vt 0.591203 0.045003
vt 0.587931 0.040051
vt 0.645649 0.001992
vt 0.779414 0.204737
vt 0.718564 0.237751
vt 0.721836 0.242704
vt 0.537679 0.080296
vt 0.531656 0.077157
vt 0.664906 0.273132
vt 0.665421 0.279902
vt 0.664118 0.280763
vt 0.530353 0.078017
vt 0.187781 0.400498
vt 0.251298 0.496980
vt 0.197671 0.532263
vt 0.134154 0.435780
vt 0.144044 0.567545
vt 0.080528 0.471063
vt 0.070638 0.339298
vt 0.124265 0.304016
vt 0.017011 0.374581
vt 0.188092 0.115789
vt 0.124576 0.019307
vt 0.123276 0.001992
vt 0.195139 0.111153
vt 0.070949 0.054590
vt 0.062602 0.041911
vt 0.251608 0.212272
vt 0.267002 0.220314
vt 0.017322 0.089872
vt 0.001928 0.081830
vt 0.197982 0.247554
vt 0.206328 0.260233
vt 0.080838 0.186355
vt 0.073791 0.190991
vt 0.144355 0.282837
vt 0.145654 0.300152
vt 0.799843 0.387444
vt 0.736326 0.290962
vt 0.735924 0.285602
vt 0.802024 0.386009
vt 0.682535 0.326353
vt 0.679945 0.322432
vt 0.737403 0.284626
vt 0.803504 0.385033
vt 0.863359 0.483926
vt 0.868124 0.486416
vt 0.629072 0.361527
vt 0.624307 0.359037
vt 0.869604 0.485439
vt 0.809896 0.519100
vt 0.812486 0.523021
vt 0.692589 0.458009
vt 0.690407 0.459444
vt 0.756105 0.554491
vt 0.756507 0.559851
vt 0.688928 0.460420
vt 0.622827 0.360014
vt 0.755029 0.560827
vt 0.128345 0.838782
vt 0.130535 0.840529
vt 0.113872 0.865705
vt 0.111682 0.863958
vt 0.086891 0.840529
vt 0.089080 0.838782
vt 0.105743 0.863958
vt 0.103554 0.865705
vt 0.769038 0.858986
vt 0.874385 0.789484
vt 0.966057 0.928506
vt 0.860710 0.998008
vt 0.353017 0.699730
vt 0.449399 0.553564
vt 0.506129 0.590992
vt 0.409609 0.737067
vt 0.562721 0.628329
vt 0.466339 0.774495
vt 0.773332 0.709915
vt 0.681660 0.570894
vt 0.682012 0.565536
vt 0.778394 0.711702
vt 0.628921 0.605688
vt 0.626563 0.602118
vt 0.683293 0.564690
vt 0.779675 0.710856
vt 0.720724 0.744623
vt 0.723083 0.748193
vt 0.576313 0.640395
vt 0.571251 0.638609
vt 0.667985 0.779417
vt 0.667634 0.784775
vt 0.666353 0.785621
vt 0.569971 0.639455
vt 0.460363 0.345300
vt 0.460363 0.284626
vt 0.487843 0.300020
vt 0.487843 0.353647
vt 0.532048 0.300020
vt 0.532048 0.353647
vt 0.487843 0.407274
vt 0.460363 0.405974
vt 0.616888 0.353483
vt 0.532048 0.407274
vt 0.460363 0.477837
vt 0.487843 0.470790
vt 0.532048 0.470790
vt 0.487843 0.534307
vt 0.460363 0.549700
vt 0.532048 0.534307
vt 0.454424 0.489026
vt 0.454424 0.549700
vt 0.426944 0.534307
vt 0.426944 0.480680
vt 0.382739 0.534307
vt 0.382739 0.480680
vt 0.426944 0.427053
vt 0.454424 0.428352
vt 0.297899 0.480844
vt 0.382739 0.427053
vt 0.454424 0.356489
vt 0.426944 0.363537
vt 0.382739 0.363537
vt 0.426944 0.300020
vt 0.454424 0.284626
vt 0.382739 0.300020
vt 0.786925 0.277217
vt 0.875216 0.240386
vt 0.876557 0.240386
vt 0.788267 0.278192
vt 0.786925 0.203781
vt 0.788265 0.202805
vt 0.788266 0.102398
vt 0.877438 0.140092
vt 0.788267 0.001992
vt 0.876557 0.039798
vt 0.144160 0.838782
vt 0.145908 0.838782
vt 0.145908 0.878437
vt 0.144160 0.878437
vt 0.171084 0.838782
vt 0.171084 0.878437
vt 0.169336 0.838782
vt 0.169336 0.878437
vt 0.716964 0.789485
vt 0.716964 0.894831
vt 0.661811 0.894831
vt 0.661811 0.789485
vt 0.763099 0.842092
vt 0.661811 0.986503
vt 0.716964 0.986503
vt 0.661811 0.881156
vt 0.716964 0.881156
vt 0.490432 0.890399
vt 0.538938 0.834950
vt 0.541037 0.834950
vt 0.492532 0.891680
vt 0.490432 0.779639
vt 0.492532 0.778358
vt 0.243596 0.678591
vt 0.243596 0.571409
vt 0.299701 0.571409
vt 0.299701 0.678591
vt 0.243596 0.698636
vt 0.299701 0.698636
vt 0.346632 0.624933
vt 0.243596 0.805818
vt 0.299701 0.805818
vt 0.381018 0.809682
vt 0.381018 0.916865
vt 0.324913 0.916865
vt 0.324913 0.809682
vt 0.427949 0.863207
vt 0.604393 0.903478
vt 0.653736 0.847062
vt 0.655872 0.847062
vt 0.606529 0.904781
vt 0.604393 0.790787
vt 0.606529 0.789484
vt 0.596319 0.847062
vt 0.546976 0.790788
vt 0.549112 0.789485
vt 0.598455 0.847062
vt 0.546976 0.903478
vt 0.549112 0.904781
vt 0.291960 0.532263
vt 0.291960 0.567545
vt 0.257236 0.567545
vt 0.257236 0.532263
vt 0.257236 0.471063
vt 0.291960 0.471063
vt 0.257236 0.496980
vt 0.291960 0.496980
vt 0.291960 0.374581
vt 0.257236 0.374581
vt 0.291960 0.400498
vt 0.257236 0.400498
vt 0.257236 0.304016
vt 0.291960 0.304016
vt 0.211746 0.874064
vt 0.211746 0.909347
vt 0.177023 0.909347
vt 0.177023 0.874064
vt 0.177023 0.838782
vt 0.211746 0.838782
vt 0.875543 0.557281
vt 0.963835 0.520450
vt 0.965176 0.520450
vt 0.876886 0.558256
vt 0.875543 0.483845
vt 0.876883 0.482869
vt 0.876885 0.382462
vt 0.966057 0.420156
vt 0.876886 0.282056
vt 0.965176 0.319862
vt 0.138221 0.878437
vt 0.136474 0.878437
vt 0.136474 0.838782
vt 0.138221 0.838782
vt 0.217685 0.944129
vt 0.217685 0.838782
vt 0.272839 0.838782
vt 0.272839 0.944129
vt 0.318974 0.891390
vt 0.482394 0.834950
vt 0.433888 0.779639
vt 0.435988 0.778358
vt 0.484493 0.834950
vt 0.433888 0.890399
vt 0.435988 0.891680
vn -0.834851 0.000000 0.550477
vn -0.834851 0.000000 0.550477
vn -0.834851 0.000000 0.550477
vn -0.834851 0.000000 0.550477
vn 0.834851 0.000000 -0.550476
vn 0.834851 0.000000 -0.550476
vn 0.834851 0.000000 -0.550476
vn 0.834851 0.000000 -0.550476
vn 0.000000 -1.000000 0.000000
vn 0.000000 -1.000000 0.000000
vn 0.000000 -1.000000 0.000000
vn 0.000000 -1.000000 0.000000
vn 0.550707 0.000000 0.834699
vn 0.550707 0.000000 0.834699
vn 0.550707 0.000000 0.834699
vn 0.550707 0.000000 0.834699
vn -0.550707 0.000000 -0.834699
vn -0.550707 0.000000 -0.834699
vn -0.550707 0.000000 -0.834699
vn -0.550707 0.000000 -0.834699
vn -0.834851 0.000002 0.550476
vn 0.320342 0.813627 0.485173
vn 0.320342 0.813627 0.485173
vn 0.320342 0.813627 0.485173
vn 0.320342 0.813627 0.485173
vn 0.834851 0.000001 -0.550476
vn -0.320342 0.813627 -0.485173
vn -0.320342 0.813627 -0.485173
vn -0.320342 0.813627 -0.485173
vn -0.320342 0.813627 -0.485173
vn -0.189073 -0.939215 -0.286576
vn -0.189073 -0.939215 -0.286576
vn -0.189073 -0.939215 -0.286576
vn -0.189073 -0.939215 -0.286576
vn -0.185666 -0.797034 -0.574686
vn -0.185666 -0.797034 -0.574686
vn -0.185666 -0.797034 -0.574686
vn -0.185666 -0.797034 -0.574686
vn -0.456341 -0.796215 -0.397233
vn -0.456341 -0.796215 -0.397233
vn -0.456341 -0.796215 -0.397233
vn -0.456341 -0.796215 -0.397233
vn 0.189073 -0.939216 0.286575
vn 0.189073 -0.939216 0.286575
vn 0.189073 -0.939216 0.286575
vn 0.189073 -0.939216 0.286575
vn 0.185665 -0.797035 0.574686
vn 0.185665 -0.797035 0.574686
vn 0.185665 -0.797035 0.574686
vn 0.185665 -0.797035 0.574686
vn 0.456342 -0.796215 0.397233
vn 0.456342 -0.796215 0.397233
vn 0.456343 -0.796215 0.397233
vn 0.456342 -0.796215 0.397233
vn 0.444566 -0.590188 0.673824
vn 0.444566 -0.590188 0.673824
vn 0.444566 -0.590188 0.673824
vn 0.444566 -0.590188 0.673824
vn 0.834775 -0.000183 -0.550591
vn 0.834776 -0.000002 -0.550590
vn 0.834776 -0.000002 -0.550590
vn 0.834775 -0.000183 -0.550591
vn -0.834776 -0.000000 0.550590
vn -0.834777 0.000177 0.550588
vn -0.834777 0.000177 0.550588
vn -0.834776 -0.000000 0.550590
vn -0.444569 -0.590185 -0.673825
vn -0.444569 -0.590184 -0.673825
vn -0.444569 -0.590185 -0.673825
vn -0.444569 -0.590184 -0.673825
vn -0.834775 -0.000177 0.550592
vn -0.834775 -0.000177 0.550592
vn 0.834777 0.000179 -0.550588
vn 0.834777 0.000179 -0.550588
vn -0.549635 0.000000 -0.835405
vn -0.549635 0.000000 -0.835405
vn -0.549635 0.000000 -0.835405
vn -0.549635 0.000000 -0.835405
vn 0.549635 0.000000 0.835405
vn 0.549635 0.000000 0.835405
vn 0.549635 0.000000 0.835405
vn 0.549635 0.000000 0.835405
vn 0.000000 -1.000000 0.000000
vn 0.000000 -1.000000 0.000000
vn 0.000000 -1.000000 0.000000
vn 0.000000 -1.000000 0.000000
vn -0.835253 0.000000 0.549865
vn -0.835253 0.000000 0.549865
vn -0.835253 0.000000 0.549865
vn -0.835253 0.000000 0.549865
vn 0.835253 0.000000 -0.549865
vn 0.835253 0.000000 -0.549865
vn 0.835253 0.000000 -0.549865
vn 0.835253 0.000000 -0.549865
vn -0.549635 0.000000 -0.835405
vn -0.549635 0.000000 -0.835405
vn -0.549635 0.000000 -0.835405
vn -0.549635 0.000000 -0.835405
vn -0.549635 0.000000 -0.835405
vn -0.549635 0.000000 -0.835405
vn -0.549635 0.000000 -0.835405
vn -0.549635 0.000000 -0.835405
vn -0.549635 0.000000 -0.835405
vn -0.549635 0.000000 -0.835405
vn -0.549635 0.000000 -0.835405
vn -0.549635 0.000000 -0.835405
vn 0.549635 0.000000 0.835405
vn 0.549635 0.000000 0.835405
vn 0.549635 0.000000 0.835405
vn 0.549635 0.000000 0.835405
vn 0.549635 0.000000 0.835405
vn 0.549635 0.000000 0.835405
vn 0.549635 0.000000 0.835405
vn 0.549635 0.000000 0.835405
vn 0.549635 0.000000 0.835405
vn 0.549635 0.000000 0.835405
vn 0.549635 0.000000 0.835405
vn 0.549635 0.000000 0.835405
vn 0.000000 -1.000000 -0.000000
vn 0.000000 -1.000000 -0.000000
vn 0.000000 -1.000000 -0.000000
vn 0.000000 -1.000000 -0.000000
vn 0.000000 -1.000000 0.000000
vn 0.000000 -1.000000 0.000000
vn 0.000000 -1.000000 0.000000
vn 0.000000 -1.000000 0.000000
vn 0.000000 -1.000000 0.000000
vn 0.000000 -1.000000 0.000000
vn 0.000000 -1.000000 0.000000
vn 0.000000 -1.000000 0.000000
vn -0.835253 0.000000 0.549865
vn -0.835253 0.000000 0.549865
vn -0.835253 0.000000 0.549865
vn -0.835253 0.000000 0.549865
vn -0.835253 0.000000 0.549865
vn -0.835253 0.000000 0.549865
vn -0.835253 0.000000 0.549865
vn -0.835253 0.000000 0.549865
vn -0.835253 0.000000 0.549865
vn -0.835253 0.000000 0.549865
vn -0.835253 0.000000 0.549865
vn -0.835253 0.000000 0.549865
vn 0.835253 0.000000 -0.549865
vn 0.835253 0.000000 -0.549865
vn 0.835253 0.000000 -0.549865
vn 0.835253 0.000000 -0.549865
vn 0.835253 0.000000 -0.549865
vn 0.835253 0.000000 -0.549865
vn 0.835253 0.000000 -0.549865
vn 0.835253 0.000000 -0.549865
vn 0.835253 0.000000 -0.549865
vn 0.835253 0.000000 -0.549865
vn 0.835253 0.000000 -0.549865
vn 0.835253 0.000000 -0.549865
vn 0.798478 0.293461 -0.525656
vn 0.798478 0.293461 -0.525656
vn 0.798478 0.293461 -0.525656
vn 0.798478 0.293461 -0.525656
vn 0.798479 0.293459 -0.525656
vn 0.798479 0.293459 -0.525655
vn 0.798479 0.293459 -0.525656
vn 0.798479 0.293459 -0.525656
vn 0.481112 0.483525 0.731256
vn 0.481112 0.483525 0.731256
vn 0.481112 0.483525 0.731256
vn 0.481112 0.483525 0.731256
vn 0.481112 0.483525 0.731256
vn 0.481112 0.483525 0.731256
vn 0.481112 0.483525 0.731256
vn 0.481112 0.483525 0.731255
vn -0.798478 0.293459 0.525656
vn -0.798478 0.293459 0.525656
vn -0.798478 0.293459 0.525656
vn -0.798479 0.293459 0.525656
vn -0.798478 0.293460 0.525656
vn -0.798478 0.293460 0.525656
vn -0.798478 0.293460 0.525656
vn -0.798478 0.293460 0.525656
vn -0.481112 0.483526 -0.731255
vn -0.481112 0.483526 -0.731255
vn -0.481112 0.483526 -0.731255
vn -0.481112 0.483526 -0.731255
vn -0.481112 0.483526 -0.731255
vn -0.481112 0.483526 -0.731255
vn -0.481112 0.483526 -0.731255
vn -0.481112 0.483526 -0.731255
vn -0.164470 -0.980422 0.108274
vn -0.164470 -0.980422 0.108274
vn -0.164470 -0.980422 0.108274
vn -0.164470 -0.980422 0.108274
vn -0.164471 -0.980421 0.108275
vn -0.164471 -0.980421 0.108275
vn -0.164471 -0.980421 0.108275
vn -0.164471 -0.980421 0.108275
vn -0.060967 -0.993829 -0.092666
vn -0.060967 -0.993829 -0.092666
vn -0.060967 -0.993829 -0.092666
vn -0.060967 -0.993829 -0.092666
vn -0.060968 -0.993829 -0.092666
vn -0.060968 -0.993829 -0.092666
vn -0.060968 -0.993829 -0.092666
vn -0.060968 -0.993829 -0.092666
vn 0.164471 -0.980421 -0.108275
vn 0.164471 -0.980421 -0.108275
vn 0.164471 -0.980421 -0.108275
vn 0.164471 -0.980421 -0.108275
vn 0.164470 -0.980421 -0.108274
vn 0.164470 -0.980421 -0.108274
vn 0.164470 -0.980421 -0.108274
vn 0.164470 -0.980421 -0.108274
vn 0.060968 -0.993829 0.092666
vn 0.060968 -0.993829 0.092666
vn 0.060968 -0.993829 0.092666
vn 0.060968 -0.993829 0.092666
vn 0.060968 -0.993829 0.092666
vn 0.060968 -0.993829 0.092666
vn 0.060968 -0.993829 0.092666
vn 0.060968 -0.993829 0.092666
vn 0.658906 0.612078 -0.437268
vn 0.658906 0.612078 -0.437268
vn 0.658906 0.612078 -0.437268
vn 0.658906 0.612078 -0.437268
vn -0.549635 0.000004 -0.835405
vn -0.549635 0.000004 -0.835405
vn -0.549635 0.000004 -0.835405
vn -0.549635 0.000004 -0.835405
vn -0.549635 0.000004 -0.835405
vn -0.549635 0.000004 -0.835405
vn -0.662113 0.610934 0.434011
vn -0.662113 0.610934 0.434011
vn -0.662113 0.610934 0.434011
vn -0.662113 0.610934 0.434011
vn -0.658907 0.612078 0.437268
vn -0.658907 0.612078 0.437268
vn -0.658907 0.612078 0.437268
vn -0.658907 0.612078 0.437268
vn 0.549635 0.000005 0.835405
vn 0.549635 0.000005 0.835405
vn 0.549635 0.000005 0.835405
vn 0.549634 0.000005 0.835405
vn 0.549634 0.000005 0.835405
vn 0.549634 0.000005 0.835405
vn 0.662113 0.610934 -0.434011
vn 0.662113 0.610934 -0.434011
vn 0.662113 0.610934 -0.434011
vn 0.662113 0.610934 -0.434011
vn -0.460493 -0.834293 0.303152
vn -0.460493 -0.834293 0.303152
vn -0.460493 -0.834293 0.303152
vn -0.460493 -0.834293 0.303152
vn -0.768173 -0.590378 0.247718
vn -0.768173 -0.590378 0.247718
vn -0.768173 -0.590378 0.247718
vn -0.768173 -0.590378 0.247718
vn 0.460493 -0.834293 -0.303153
vn 0.460493 -0.834293 -0.303153
vn 0.460493 -0.834293 -0.303153
vn 0.460493 -0.834293 -0.303153
vn 0.531497 -0.587800 -0.609919
vn 0.531497 -0.587800 -0.609919
vn 0.531497 -0.587800 -0.609919
vn 0.531497 -0.587800 -0.609919
vn 0.460494 -0.834292 -0.303156
vn 0.460494 -0.834292 -0.303156
vn 0.460494 -0.834292 -0.303156
vn 0.460494 -0.834292 -0.303156
vn 0.768173 -0.590376 -0.247721
vn 0.768173 -0.590376 -0.247721
vn 0.768173 -0.590377 -0.247721
vn 0.768173 -0.590376 -0.247721
vn -0.460495 -0.834291 0.303155
vn -0.460495 -0.834291 0.303155
vn -0.460495 -0.834291 0.303155
vn -0.460495 -0.834291 0.303155
vn -0.531495 -0.587801 0.609921
vn -0.531495 -0.587801 0.609921
vn -0.531495 -0.587801 0.609921
vn -0.531495 -0.587801 0.609921
vn 0.503967 -0.797459 -0.331778
vn 0.504214 -0.797235 -0.331941
vn 0.504214 -0.797235 -0.331941
vn 0.503967 -0.797459 -0.331779
vn -0.550082 -0.000394 -0.835111
vn -0.550078 -0.000000 -0.835113
vn -0.550078 -0.000001 -0.835113
vn -0.550082 -0.000394 -0.835111
vn -0.503723 -0.797678 0.331621
vn -0.503968 -0.797457 0.331781
vn -0.503968 -0.797457 0.331781
vn -0.503723 -0.797678 0.331621
vn -0.550075 0.000395 -0.835115
vn -0.550075 0.000395 -0.835115
vn -0.504212 -0.797236 0.331941
vn -0.504213 -0.797236 0.331941
vn 0.550089 -0.000401 0.835106
vn 0.550081 -0.000004 0.835111
vn 0.550081 -0.000004 0.835111
vn 0.550089 -0.000401 0.835106
vn 0.503720 -0.797682 -0.331616
vn 0.503720 -0.797682 -0.331616
vn 0.550074 0.000394 0.835116
vn 0.550074 0.000394 0.835116
vn 0.623796 0.000000 0.781588
vn 0.623796 0.000000 0.781588
vn 0.623796 0.000000 0.781588
vn 0.623796 0.000000 0.781588
vn 0.000000 1.000000 0.000000
vn 0.000000 1.000000 0.000000
vn 0.000000 1.000000 0.000000
vn 0.000000 1.000000 0.000000
vn -0.623796 0.000000 -0.781588
vn -0.623796 0.000000 -0.781588
vn -0.623796 0.000000 -0.781588
vn -0.623796 0.000000 -0.781588
vn 0.000000 -1.000000 0.000000
vn 0.000000 -1.000000 0.000000
vn 0.000000 -1.000000 0.000000
vn 0.000000 -1.000000 0.000000
vn 0.833893 0.000000 -0.551926
vn 0.833893 0.000000 -0.551926
vn 0.833893 0.000000 -0.551926
vn 0.833893 0.000000 -0.551926
vn -0.833893 0.000000 0.551926
vn -0.833893 0.000000 0.551926
vn -0.833893 0.000000 0.551926
vn -0.833893 0.000000 0.551926
vn -0.834708 0.000000 0.550692
vn -0.834708 0.000000 0.550692
vn -0.834709 0.000000 0.550692
vn -0.834709 0.000000 0.550692
vn 0.834709 0.000000 -0.550692
vn 0.834709 0.000000 -0.550692
vn 0.834709 0.000000 -0.550692
vn 0.834709 0.000000 -0.550692
vn 0.000000 -1.000000 0.000000
vn 0.000000 -1.000000 0.000000
vn 0.000000 -1.000000 0.000000
vn 0.000000 -1.000000 0.000000
vn 0.550497 0.000000 0.834837
vn 0.550497 0.000000 0.834837
vn 0.550497 0.000000 0.834837
vn 0.550497 0.000000 0.834837
vn -0.550496 0.000000 -0.834837
vn -0.550496 0.000000 -0.834837
vn -0.550496 0.000000 -0.834837
vn -0.550496 0.000000 -0.834837
vn -0.834709 0.000001 0.550692
vn 0.320281 0.813627 0.485213
vn 0.320281 0.813627 0.485213
vn 0.320281 0.813627 0.485213
vn 0.320281 0.813627 0.485213
vn 0.834709 0.000001 -0.550692
vn -0.320281 0.813627 -0.485213
vn -0.320281 0.813627 -0.485213
vn -0.320281 0.813627 -0.485213
vn -0.320281 0.813627 -0.485213
vn -0.188999 -0.939216 -0.286622
vn -0.188999 -0.939216 -0.286622
vn -0.188999 -0.939216 -0.286622
vn -0.188999 -0.939216 -0.286622
vn -0.135009 -0.788200 -0.600428
vn -0.135009 -0.788200 -0.600428
vn -0.135009 -0.788200 -0.600428
vn -0.135009 -0.788200 -0.600428
vn -0.499843 -0.787408 -0.360757
vn -0.499843 -0.787408 -0.360757
vn -0.499843 -0.787408 -0.360757
vn -0.499843 -0.787408 -0.360757
vn 0.189000 -0.939217 0.286620
vn 0.189000 -0.939217 0.286620
vn 0.189000 -0.939217 0.286620
vn 0.189000 -0.939217 0.286620
vn 0.135008 -0.788200 0.600429
vn 0.135008 -0.788200 0.600429
vn 0.135008 -0.788200 0.600429
vn 0.135008 -0.788200 0.600428
vn 0.499845 -0.787406 0.360757
vn 0.499845 -0.787406 0.360757
vn 0.499845 -0.787406 0.360757
vn 0.499845 -0.787406 0.360757
vn 0.444396 -0.590189 0.673935
vn 0.444396 -0.590189 0.673935
vn 0.444396 -0.590189 0.673935
vn 0.444396 -0.590189 0.673935
vn 0.834652 -0.000133 -0.550779
vn 0.834653 -0.000003 -0.550776
vn 0.834653 -0.000003 -0.550776
vn 0.834652 -0.000133 -0.550778
vn -0.834653 0.000001 0.550776
vn -0.834653 0.000133 0.550775
vn -0.834653 0.000133 0.550775
vn -0.834653 0.000001 0.550776
vn -0.444397 -0.590183 -0.673940
vn -0.444397 -0.590183 -0.673940
vn -0.444397 -0.590183 -0.673940
vn -0.444397 -0.590183 -0.673940
vn -0.834652 -0.000131 0.550777
vn -0.834652 -0.000131 0.550777
vn 0.834654 0.000127 -0.550774
vn 0.834654 0.000127 -0.550774
s 1
g housepart7
usemtl lambert3SG
f 187/517/432 188/518/433 190/519/434 189/520/435
s 2
f 191/526/436 192/527/437 194/528/438 193/529/439
s off
f 193/345/440 194/346/441 188/347/442 187/348/443
f 188/518/444 194/521/445 192/522/446 190/519/447
f 193/524/448 187/517/449 189/520/450 191/525/451
s 1
f 189/520/435 190/519/434 195/523/452
s off
f 203/349/453 204/350/454 205/351/455 206/352/456
s 2
f 192/527/437 191/526/436 196/530/457
s off
f 208/353/458 207/354/459 206/352/460 205/351/461
f 190/355/462 192/356/463 198/357/464 197/358/465
f 192/356/466 196/359/467 199/360/468 198/357/469
f 195/363/470 190/355/471 197/358/472 200/364/473
f 191/365/474 189/367/475 201/368/476 202/366/477
f 189/367/478 195/363/479 200/364/480 201/368/481
f 196/359/482 191/365/483 202/366/484 199/360/485
f 197/358/486 198/357/487 204/361/488 203/362/489
s 3
f 198/531/490 199/532/491 205/533/492 204/534/493
s 4
f 200/537/494 197/538/495 203/539/496 206/540/497
s off
f 202/366/498 201/368/499 207/369/500 208/370/501
s 4
f 201/541/502 200/537/494 206/540/497 207/542/503
s 3
f 199/532/491 202/535/504 208/536/505 205/533/492
s off
f 241/543/506 234/544/507 209/545/508 218/546/509
f 228/454/510 213/456/511 223/457/512 225/455/513
f 231/371/514 215/372/515 227/373/516 229/374/517
f 239/553/518 240/550/519 210/549/520 230/554/521
f 235/548/522 236/551/523 215/552/524 231/547/525
f 218/546/526 210/549/527 240/550/528 241/543/529
f 219/470/530 212/472/531 220/473/532 217/471/533
f 220/473/534 211/477/535 221/474/536 217/471/537
f 223/457/538 214/461/539 226/458/540 225/455/541
f 237/557/542 238/558/543 216/559/544 227/560/545
f 227/560/546 215/561/547 236/562/548 237/557/549
f 227/373/550 216/375/551 230/376/552 229/374/553
f 230/376/554 210/379/555 218/377/556 229/374/557
f 218/377/558 209/378/559 231/371/560 229/374/561
f 230/554/562 216/555/563 238/556/564 239/553/565
f 226/458/566 214/461/567 222/464/568 232/463/569
f 222/464/570 212/467/571 219/465/572 232/463/573
f 231/547/574 209/545/575 234/544/576 235/548/577
f 221/474/578 211/477/579 224/480/580 233/479/581
f 224/480/582 213/483/583 228/481/584 233/479/585
f 243/478/586 242/475/587 221/474/588 233/479/589
f 228/481/590 244/482/591 243/478/592 233/479/593
f 245/452/594 244/453/595 228/454/596 225/455/597
f 226/458/598 246/459/599 245/452/600 225/455/601
f 247/462/602 246/459/603 226/458/604 232/463/605
f 219/465/606 248/466/607 247/462/608 232/463/609
f 249/468/610 248/469/611 219/470/612 217/471/613
f 221/474/614 242/475/615 249/468/616 217/471/617
f 235/380/618 234/381/619 242/382/620 243/383/621
f 236/386/622 235/380/623 243/383/624 244/387/625
f 237/390/626 236/386/627 244/387/628 245/391/629
f 238/394/630 237/390/631 245/391/632 246/395/633
f 239/392/634 238/394/635 246/395/636 247/393/637
f 240/388/638 239/392/639 247/393/640 248/389/641
f 241/384/642 240/388/643 248/389/644 249/385/645
f 234/381/646 241/384/647 249/385/648 242/382/649
f 261/490/650 260/492/651 262/493/652 263/491/653
f 211/477/654 220/473/655 250/476/656
f 220/473/657 212/472/658 250/476/659
f 264/568/660 265/569/661 263/570/662 262/565/663
f 265/569/664 266/571/665 267/572/666 263/570/667
f 214/461/668 223/457/669 251/460/670
f 223/457/671 213/456/672 251/460/673
f 268/489/674 261/490/675 263/491/676 267/486/677
f 224/396/678 211/397/679 252/398/680 253/399/681
f 211/397/682 250/400/683 254/401/684 252/398/685
f 212/406/686 222/411/687 256/412/688 255/407/689
f 250/400/690 212/406/691 255/407/692 254/401/693
f 222/411/694 214/413/695 257/414/696 256/412/697
f 214/413/698 251/409/699 258/410/700 257/414/701
f 213/404/702 224/396/703 253/399/704 259/405/705
f 251/409/706 213/404/707 259/405/708 258/410/709
s 5
f 253/399/710 252/398/711 260/402/712 261/403/713
s 6
f 252/563/714 254/564/715 262/565/716 260/566/717
s 7
f 255/407/718 256/412/719 265/415/720 264/416/721
s 6
f 254/564/715 255/567/722 264/568/723 262/565/716
s 7
f 256/412/719 257/414/724 266/417/725 265/415/720
s 8
f 257/484/726 258/485/727 267/486/728 266/487/729
s 5
f 259/405/730 253/399/710 261/403/713 268/408/731
s 8
f 258/485/727 259/488/732 268/489/733 267/486/728
s off
f 269/494/734 270/495/735 272/496/736 271/497/737
f 271/418/738 272/419/739 274/420/740 273/421/741
f 273/573/742 274/574/743 276/575/744 275/576/745
f 275/422/746 276/423/747 270/424/748 269/425/749
f 270/495/750 276/498/751 274/499/752 272/496/753
f 275/500/754 269/494/755 271/497/756 273/501/757
s 9
f 277/577/758 278/578/759 280/579/760 279/580/761
s 10
f 281/502/762 282/503/763 284/504/764 283/505/765
s off
f 283/426/766 284/427/767 278/428/768 277/429/769
f 278/507/770 284/504/771 282/503/772 280/508/773
f 283/505/774 277/509/775 279/510/776 281/502/777
s 9
f 279/580/761 280/579/760 285/581/778
s off
f 293/430/779 294/431/780 295/432/781 296/433/782
s 10
f 282/503/763 281/502/762 286/506/783
s off
f 298/434/784 297/435/785 296/433/786 295/432/787
f 280/436/788 282/437/789 288/438/790 287/439/791
f 282/437/792 286/440/793 289/441/794 288/438/795
f 285/444/796 280/436/797 287/439/798 290/445/799
f 281/446/800 279/448/801 291/449/802 292/447/803
f 279/448/804 285/444/805 290/445/806 291/449/807
f 286/440/808 281/446/809 292/447/810 289/441/811
f 287/439/812 288/438/813 294/442/814 293/443/815
s 11
f 288/511/816 289/512/817 295/513/818 294/514/819
s 12
f 290/582/820 287/583/821 293/584/822 296/585/823
s off
f 292/447/824 291/449/825 297/450/826 298/451/827
s 12
f 291/586/828 290/582/820 296/585/823 297/587/829
s 11
f 289/512/817 292/515/830 298/516/831 295/513/818
