# This file uses centimeters as units for non-parametric coordinates.

mtllib woodenstake.mtl
g default
v 0.097196 2.272321 -0.069640
v 0.022490 2.272321 -0.123934
v -0.075881 2.272321 -0.104442
v -0.122778 2.272321 -0.039893
v -0.122778 2.272321 0.039893
v -0.064838 2.272321 0.118252
v 0.041882 2.272321 0.121907
v 0.104442 2.272321 0.075881
v 0.121265 2.272321 0.005917
v 0.000000 2.652530 0.000000
v -0.064838 -0.564813 0.118252
v 0.121265 -0.564813 0.005917
v 0.104442 -0.564813 0.075881
v 0.041882 -0.564813 0.121907
v 0.022490 -0.564813 -0.123934
v -0.122779 -0.564813 -0.039893
v -0.075881 -0.564813 -0.104442
v 0.097195 -0.564813 -0.069640
v -0.122779 -0.564813 0.039893
vt 0.199307 0.880304
vt 0.235534 0.880304
vt 0.217421 0.998008
vt 0.199307 0.001992
vt 0.235534 0.001992
vt 0.271114 0.880304
vt 0.169998 0.880304
vt 0.169998 0.001992
vt 0.271114 0.001992
vt 0.021781 0.880304
vt 0.053549 0.880304
vt 0.056236 0.998008
vt 0.021781 0.001992
vt 0.053549 0.001992
vt 0.087856 0.880304
vt 0.000883 0.880304
vt 0.000883 0.001992
vt 0.087856 0.001992
vt 0.112509 0.880304
vt 0.112509 0.001992
vt 0.357974 0.111958
vt 0.442475 0.060952
vt 0.434837 0.092720
vt 0.406431 0.113618
vt 0.431546 0.026645
vt 0.331666 0.076379
vt 0.331666 0.040152
vt 0.397626 0.001992
vt 0.352960 0.010843
vt 0.163803 0.119696
vt 0.119137 0.119696
vt 0.153591 0.001992
vt 0.163803 0.998008
vt 0.119137 0.998008
vt 0.277171 0.880304
vt 0.325628 0.880304
vt 0.306611 0.998008
vt 0.277171 0.001992
vt 0.325628 0.001992
vn 0.000000 -1.000000 0.000000
vn 0.000000 -1.000000 0.000000
vn 0.000000 -1.000000 0.000003
vn 0.000000 -1.000000 0.000003
vn 0.759461 0.299887 -0.577309
vn 0.182764 0.314450 -0.931514
vn -0.077859 0.996683 0.023666
vn -0.480009 0.320158 -0.816756
vn -0.900560 0.321514 -0.292610
vn -0.889305 0.321320 0.325409
vn -0.422407 0.334094 0.842587
vn 0.232901 0.320095 0.918312
vn 0.778983 0.321434 0.538393
vn 0.952098 0.303026 -0.041037
vn 0.000000 -1.000000 0.000001
vn 0.000000 -1.000000 0.000001
vn 0.000000 -1.000000 0.000000
vn 0.000000 -1.000000 0.000001
vn 0.000000 -1.000000 0.000001
vn 0.972286 0.000000 0.233794
vn 0.972286 0.000000 0.233794
vn 0.972286 0.000000 0.233794
vn 0.972286 0.000000 0.233794
vn 0.592608 -0.000000 0.805491
vn 0.592608 -0.000000 0.805491
vn 0.592608 -0.000000 0.805491
vn 0.592608 -0.000000 0.805491
vn -0.034226 -0.000000 0.999414
vn -0.034226 -0.000000 0.999414
vn -0.034226 -0.000000 0.999414
vn -0.034226 -0.000000 0.999414
vn -0.809017 0.000000 -0.587785
vn -0.809017 0.000000 -0.587785
vn -0.809017 0.000000 -0.587785
vn -0.809017 0.000000 -0.587785
vn -0.194377 -0.000000 -0.980927
vn -0.194377 -0.000000 -0.980927
vn -0.194377 -0.000000 -0.980927
vn -0.194377 -0.000000 -0.980927
vn 0.952821 -0.000000 -0.303534
vn 0.952821 -0.000000 -0.303534
vn 0.952821 -0.000000 -0.303534
vn 0.952821 -0.000000 -0.303534
vn -0.804063 0.000000 0.594545
vn -0.804063 0.000000 0.594545
vn -0.804063 0.000000 0.594545
vn -0.804063 0.000000 0.594545
vn -1.000000 0.000000 0.000000
vn -1.000000 0.000000 0.000000
vn -1.000000 0.000000 0.000000
vn -1.000000 0.000000 0.000000
vn 0.587911 -0.000000 -0.808926
vn 0.587911 -0.000000 -0.808926
vn 0.587911 -0.000000 -0.808926
vn 0.587911 -0.000000 -0.808926
s 1
g pCone2
usemtl initialShadingGroup
f 11/21/1 12/22/2 13/23/3 14/24/4
s 2
f 1/15/5 2/19/6 10/12/7
f 2/30/6 3/31/8 10/32/7
f 3/7/8 4/1/9 10/3/7
f 4/1/9 5/2/10 10/3/7
f 5/2/10 6/6/11 10/3/7
f 6/35/11 7/36/12 10/37/7
f 7/16/12 8/10/13 10/12/7
f 8/10/13 9/11/14 10/12/7
f 9/11/14 1/15/5 10/12/7
s 1
f 15/28/15 16/27/16 17/29/17
f 18/25/18 12/22/2 11/21/1 19/26/19
f 18/25/18 19/26/19 16/27/16 15/28/15
s off
f 9/11/20 8/10/21 13/13/22 12/14/23
f 8/10/24 7/16/25 14/17/26 13/13/27
f 7/36/28 6/35/29 11/38/30 14/39/31
f 4/1/32 3/7/33 17/8/34 16/4/35
f 3/31/36 2/30/37 15/33/38 17/34/39
f 1/15/40 9/11/41 12/14/42 18/18/43
f 6/6/44 5/2/45 19/5/46 11/9/47
f 5/2/48 4/1/49 16/4/50 19/5/51
f 2/19/52 1/15/53 18/18/54 15/20/55
