# This file uses centimeters as units for non-parametric coordinates.

mtllib cheese.mtl
g default
v -0.539927 -0.424710 0.951057
v -0.000000 -0.424710 1.000000
v 0.539927 -0.424710 0.951057
v -0.539927 0.424710 0.951057
v -0.000000 0.424710 1.000000
v 0.539927 0.424710 0.951057
v 0.000000 -0.424710 0.000000
v 0.000000 0.424710 0.000000
vt 0.451716 0.304853
vt 0.500000 0.312500
vt 0.555392 0.308676
vt 0.537500 0.312500
vt 0.550000 0.312500
vt 0.537500 0.687500
vt 0.550000 0.687500
vt 0.555392 0.691324
vt 0.500000 0.687500
vt 0.451716 0.695147
vt 0.500000 0.156250
vt 0.500000 0.843750
vn -0.090278 0.000000 0.995917
vn 0.000000 0.000000 1.000000
vn 0.000000 0.000000 1.000000
vn -0.090278 0.000000 0.995917
vn 0.090278 0.000000 0.995917
vn 0.090278 0.000000 0.995917
vn 0.000000 -1.000000 0.000000
vn 0.000000 -1.000000 0.000000
vn 0.000000 -1.000000 0.000000
vn 0.000000 -1.000000 0.000000
vn 0.000000 1.000000 0.000000
vn 0.000000 1.000000 -0.000000
vn 0.000000 1.000000 -0.000000
vn 0.000000 1.000000 -0.000000
vn 0.869632 0.000000 -0.493701
vn 0.869632 0.000000 -0.493701
vn 0.869632 0.000000 -0.493701
vn 0.869632 0.000000 -0.493701
vn -0.869632 0.000000 -0.493701
vn -0.869632 0.000000 -0.493701
vn -0.869632 0.000000 -0.493701
vn -0.869632 0.000000 -0.493701
s 1
g pCylinder1
usemtl initialShadingGroup
f 1/4/1 2/5/2 5/7/3 4/6/4
f 2/5/2 3/3/5 6/8/6 5/7/3
s 2
f 2/2/7 1/1/8 7/11/9
f 3/3/10 2/2/7 7/11/9
s 3
f 4/10/11 5/9/12 8/12/13
f 5/9/12 6/8/14 8/12/13
s off
f 3/3/15 7/11/16 8/12/17 6/8/18
f 1/4/19 4/10/20 8/12/21 7/11/22
